<?xml version="1.0" standalone="no"?>
<!DOCTYPE svg PUBLIC "-//W3C//DTD SVG 1.1//EN" "http://www.w3.org/Graphics/SVG/1.1/DTD/svg11.dtd" >
<svg xmlns="http://www.w3.org/2000/svg">
<metadata>Generated by IcoMoon</metadata>
<defs>
<font id="icomoon" horiz-adv-x="1024">
<font-face units-per-em="1024" ascent="960" descent="-64" />
<missing-glyph horiz-adv-x="1024" />
<glyph unicode="&#x20;" horiz-adv-x="512" d="" />
<glyph unicode="&#xe900;" glyph-name="group-43" horiz-adv-x="425" d="M425.165 394.728c-11.69 51.032-41.641 174.046-58.448 242.794-7.901 32.030-36.383 55.409-70.325 55.409-0.057 0-0.115 0-0.172 0h-0.563l-165.136-1.299c-33.929-0.23-62.301-23.747-69.946-55.356-15.466-65.074-43.703-182.269-60.199-241.6-0.266-0.919-0.419-1.975-0.419-3.067 0-5.23 3.508-9.64 8.3-11.006 0.998-0.284 2.053-0.435 3.142-0.435 0.001 0 0.003 0 0.004 0 5.223 0.010 9.625 3.513 10.994 8.297 16.606 59.828 44.921 177.283 60.325 242.018 5.307 21.976 24.727 38.074 47.935 38.238l165.531 1.299c0.029 0 0.064 0 0.098 0 23.245 0 42.75-16.014 48.083-37.612 16.852-69.049 46.739-191.92 58.428-242.822 1.209-5.123 5.742-8.876 11.151-8.876 0.909 0 1.794 0.106 2.642 0.307 5.051 1.189 8.811 5.725 8.811 11.139 0 0.908-0.106 1.792-0.306 2.639zM357.872 396.234c-1.32 4.961-5.771 8.557-11.063 8.557-1.031 0-2.030-0.136-2.98-0.392-4.88-1.307-8.474-5.761-8.474-11.054 0-1.027 0.135-2.023 0.389-2.97l29.141-111.803c-0.661-6.38-6.009-11.313-12.51-11.313-0.009 0-0.017 0-0.026 0l-49.758-0.195c-6.303-0.022-11.404-5.137-11.404-11.443 0 0 0 0 0 0v-265.797c-0.022-17.071-13.855-30.903-30.924-30.926h-36.097v296.93c0 6.32-5.123 11.443-11.443 11.443s-11.443-5.123-11.443-11.443v-296.93h-34.186c-17.071 0.022-30.903 13.855-30.926 30.924v265.799c0 0 0 0 0 0 0 6.306-5.101 11.421-11.402 11.443l-49.8 0.195c-6.525 0.006-11.884 4.987-12.491 11.353l27.272 113.96c0.2 0.801 0.315 1.721 0.315 2.667 0 5.371-3.701 9.878-8.692 11.11-0.877 0.215-1.793 0.329-2.736 0.329-5.373 0-9.882-3.699-11.12-8.689l-27.695-115.521c-0.198-0.796-0.312-1.71-0.312-2.651 0-0.004 0-0.008 0-0.012 0.015-19.544 15.84-35.388 35.376-35.432l38.359-0.156v-254.393c0.037-29.704 24.107-53.774 53.808-53.811h93.183c29.704 0.037 53.774 24.107 53.811 53.808v254.409l38.316 0.156c19.56 0.022 35.41 15.873 35.433 35.43 0 0.009 0 0.018 0 0.027 0 1.016-0.133 2.001-0.382 2.938zM212.739 937.114c45.436-0.052 82.253-36.882 82.282-82.318-0.052-45.421-36.852-82.226-82.264-82.285-45.434 0.044-82.249 36.855-82.301 82.277 0.052 45.427 36.86 82.235 82.277 82.287zM212.739 749.638c58.086 0.044 105.162 47.121 105.207 105.203-0.044 58.091-47.121 105.167-105.203 105.211-58.091-0.044-105.167-47.121-105.211-105.203 0.044-58.091 47.121-105.167 105.203-105.211z" />
<glyph unicode="&#xe901;" glyph-name="group-44" horiz-adv-x="340" d="M169.905 937.178c45.795-0.066 82.899-37.183 82.943-82.977-0.059-45.792-37.157-82.894-82.937-82.96-45.808 0.051-82.924 37.167-82.975 82.964 0.059 45.804 37.17 82.915 82.963 82.974zM169.905 748.418c58.397 0.073 105.718 47.394 105.791 105.784-0.073 58.404-47.394 105.725-105.784 105.798-58.415-0.066-105.745-47.397-105.811-105.798 0.073-58.408 47.401-105.731 105.798-105.797zM264.813 380.609c-6.302 0-11.411-5.109-11.411-11.411v-379.529c-0.037-17.021-13.825-30.81-30.843-30.846h-41.218v332.004c0 6.302-5.109 11.411-11.411 11.411s-11.411-5.109-11.411-11.411v-331.991h-41.214c-17.021 0.037-30.81 13.825-30.846 30.843v379.52c0 0 0 0 0 0.001 0 6.302-5.109 11.411-11.411 11.411-0.045 0-0.091 0-0.136-0.001-6.295 0-11.404-5.109-11.404-11.411v-379.529c0.037-29.625 24.043-53.632 53.665-53.668h105.383c29.625 0.037 53.632 24.043 53.668 53.665v379.533c0 6.302-5.109 11.411-11.411 11.411zM270.802 690.28h-201.82c-38.059-0.044-68.899-30.885-68.943-68.939v-288.734c0-6.302 5.109-11.411 11.411-11.411s11.411 5.109 11.411 11.411v288.73c0.022 25.463 20.658 46.099 46.119 46.121h201.873c25.453-0.029 46.079-20.655 46.108-46.105v-288.733c0-6.302 5.109-11.411 11.411-11.411s11.411 5.109 11.411 11.411v288.717c-0.044 38.072-30.907 68.921-68.98 68.943z" />
<glyph unicode="&#xe904;" glyph-name="Group-8" d="M331.413 725.157c0 101.359 82.168 183.527 183.527 183.527s183.527-82.168 183.527-183.527c0-101.359-82.168-183.527-183.527-183.527s-183.527 82.168-183.527 183.527zM514.94 490.298c129.624 0.178 234.652 105.23 234.793 234.845 0 129.723-105.15 234.873-234.859 234.873s-234.859-105.15-234.859-234.859c0.16-129.642 105.217-234.693 234.845-234.843zM740.385 222.819h-51.662v45.981c0.073 0.641 0.114 1.383 0.114 2.136 0 10.907-8.716 19.779-19.563 20.029-10.892-0.252-19.606-9.123-19.606-20.029 0-0.741 0.040-1.472 0.119-2.192l-0.008-45.925h-52.554c-0.631 0.071-1.363 0.111-2.105 0.111-10.877 0-19.729-8.668-20.026-19.473 0.252-10.896 9.122-19.611 20.028-19.611 0.741 0 1.472 0.040 2.192 0.119l52.465-0.008v-58.318c-0.072-0.636-0.112-1.373-0.112-2.119 0-10.91 8.713-19.785 19.561-20.045 10.896 0.26 19.609 9.135 19.609 20.045 0 0.747-0.041 1.484-0.12 2.209l0.008 58.146h51.662c0.635-0.071 1.372-0.112 2.118-0.112 10.939 0 19.832 8.76 20.047 19.647-0.305 10.855-9.162 19.523-20.043 19.523-0.747 0-1.485-0.041-2.211-0.121zM494.014 465.672c-67.934-2.493-131.681-17.727-189.805-43.367 2.616-20.344-0.266-40.96-5.13-60.799 63.666 34.060 138.267 52.894 217.247 53.098 196.344-2.593 354.238-106.727 367.237-242.291l1.090-10.686c4.591-46.014 9.91-98.172-16.169-126.976-43.487-48.194-138.339-54.834-234.38-54.834-20.216 0-40.679 0.297-61.77 0.611-16.037 0.231-31.86 0.347-47.748 0.429h-30.571s-24.13-0.198-40.233-0.429c-20.348-0.297-37.525-0.578-57.806-0.578-96.041 0-189.258 6.606-232.745 54.834-25.996 28.804-20.001 80.929-15.426 126.976l1.074 7.68c-16.016-8.679-34.681-16.416-54.183-22.207-6.15-50.167-5.655-106.718 30.548-146.869 59.755-66.23 172.66-71.779 273.012-71.779 20.216 0 40.993 0.297 61.275 0.611h2.147q27.929 0.413 54.966 0.446c18.168 0 36.335-0.182 54.966-0.446h1.932c20.315-0.314 40.696-0.611 60.911-0.611 100.352 0 212.43 5.549 272.186 71.779 41.208 45.684 34.535 112.64 29.184 166.45l-2.197 14.6c-15.31 158.984-201.761 277.851-415.546 284.358z" />
<glyph unicode="&#xe905;" glyph-name="group-1" d="M392.080 102.316h0.261c5.322 0.151 9.651 4.204 10.236 9.391l35.844 333.891 30.776-242.539c1.257-9.317 9.152-16.426 18.71-16.44h20.481c0.013 0 0.029 0 0.045 0 6.553 0 12.324 3.345 15.7 8.421l18.922 28.965 8.229-17.427c3.163-6.573 9.762-11.035 17.405-11.059h95.57c3.667 0.011 6.636 2.98 6.647 6.646 0 3.672-2.976 6.648-6.647 6.648h-95.586c-2.374 0.011-4.422 1.4-5.384 3.408l-8.375 17.779c-2.019 4.209-6.117 7.132-10.927 7.445-0.319 0.023-0.645 0.036-0.974 0.036-4.567 0-8.585-2.349-10.912-5.904l-19.096-29.187c-1.012-1.52-2.717-2.51-4.654-2.513h-20.481c-0.013 0-0.029 0-0.045 0-2.835 0-5.177 2.113-5.537 4.85l-33.516 263.699c-0.698 5.348-5.224 9.436-10.705 9.439h0.074c-5.513-0.056-10.033-4.234-10.627-9.596l-35.937-334.58-25.935 164.492c-0.826 5.081-5.134 8.927-10.36 9.030h-0.16c-0.021 0-0.046 0-0.071 0-5.181 0-9.503-3.681-10.493-8.57l-26.933-136.968-14.448 35.375c-2.86 6.936-9.569 11.73-17.398 11.73-0.023 0-0.047 0-0.070 0h-34.682c-0.003 0-0.006 0-0.009 0-0.549 0-1.037 0.261-1.347 0.666l-21.526 28.136c-1.79 2.334-4.572 3.831-7.704 3.854h-0.115c-0.001 0-0.002 0-0.003 0-3.102 0-5.865-1.447-7.652-3.703l-21.631-26.905c-1.028-1.261-2.58-2.061-4.318-2.067h-121.243c-3.671 0-6.647-2.976-6.647-6.647s2.976-6.647 6.647-6.647h121.242c0.010 0 0.022 0 0.034 0 5.916 0 11.191 2.74 14.628 7.020l18.851 23.458 18.897-24.595c2.777-3.572 7.069-5.851 11.895-5.865h34.688c2.308-0.012 4.284-1.422 5.125-3.426l21.238-51.982c1.19-2.92 4.007-4.94 7.295-4.94 0.29 0 0.576 0.016 0.857 0.046 3.478 0.357 6.295 2.947 6.994 6.313l27.527 140.079 26.903-170.356c0.835-5.074 5.181-8.901 10.424-8.918zM199.606 39.852c0.006 0 0.012 0 0.019 0 3.308 0 6.395-0.943 9.008-2.574 45.326-28.381 100.486-45.238 159.583-45.238 0.11 0 0.22 0 0.33 0 168.548 0.169 305.152 136.773 305.321 305.322-0.159 168.586-136.768 305.195-305.323 305.354-168.589-0.148-305.205-136.764-305.354-305.324-0.001-0.224-0.001-0.473-0.001-0.721 0-63.17 19.337-121.823 52.415-170.363 1.157-1.627 2.251-4.934 2.251-8.496 0-0.975-0.082-1.932-0.239-2.862-7.812-46.794-32.196-86.933-66.809-114.927 12.456-5.157 27.267-7.983 42.738-7.983 0.024 0 0.047 0 0.071 0 0.066 0 0.148 0 0.23 0 36.955 0 70.132 16.176 92.837 41.834 3.243 3.717 7.819 5.971 12.922 5.977zM368.528-42.068c-0.086 0-0.188 0-0.29 0-60.893 0-118.030 16.084-167.393 44.236-26.614-27.723-64.932-44.236-107.107-44.236-0.044 0-0.089 0-0.133 0-0.025 0-0.062 0-0.1 0-31.872 0-61.536 9.453-86.342 25.708-4.106 2.714-7.171 7.963-7.171 13.927 0 0.171 0.003 0.342 0.008 0.512 0.18 6.098 3.569 11.391 8.537 14.249 37.773 21.633 64.985 57.88 74.099 100.815-33.457 52.552-53.463 115.664-53.463 183.448 0 0.251 0 0.502 0.001 0.753 0.212 187.292 152.021 339.095 339.334 339.296 187.335-0.222 339.124-152.017 339.335-339.314-0.191-187.354-151.987-339.17-339.295-339.393zM941.577 307.135c-0.012 0-0.025 0-0.039 0-38.643 0-73.785 14.99-99.929 39.471-19.329-11.071-41.807-20.528-65.427-27.277l-11.366 32.21c26.95 7.618 50.501 18.16 72.082 31.573 1.357 0.909 4.446 1.855 7.755 1.855 5.080 0 9.639-2.228 12.754-5.761 20.659-23.37 50.685-38.018 84.132-38.018 0.013 0 0.027 0 0.040 0 0.053 0 0.118 0 0.184 0 13.139 0 25.756 2.236 37.491 6.349-32.063 25.737-53.854 62.176-60.792 103.647-0.282 1.836-0.364 2.792-0.364 3.768 0 3.562 1.093 6.869 2.963 9.603 29.418 43.205 46.993 96.614 46.993 154.128 0 0.337-0.001 0.674-0.002 1.011-0.191 153.629-124.732 278.157-278.4 278.327-127.309-0.16-234.598-85.617-267.807-202.276l-33.321 7.065c37.817 133.147 158.236 229.068 301.089 229.264 172.509-0.18 312.29-139.948 312.492-312.412 0.001-0.295 0.001-0.621 0.001-0.948 0-62.143-18.266-120.019-49.721-168.554 9.287-38.383 33.907-71.017 67.272-90.11 5.715-3.251 9.101-8.527 9.294-14.609 0.006-0.188 0.009-0.378 0.009-0.569 0-5.936-3.042-11.161-7.653-14.201-22.393-14.746-49.777-23.499-79.206-23.499-0.191 0-0.383 0-0.574 0.001z" />
<glyph unicode="&#xe906;" glyph-name="group-2" d="M563.32 157.982h0.226c4.556 0.123 8.263 3.601 8.746 8.047l30.693 285.646 26.308-207.496c1.057-7.989 7.817-14.093 16.006-14.11h17.515c0.023 0 0.050 0 0.078 0 5.617 0 10.562 2.88 13.438 7.243l16.135 24.787 7.048-14.908c2.716-5.621 8.364-9.435 14.905-9.457h124.329c0.004 0 0.010 0 0.015 0 3.135 0 5.677 2.542 5.677 5.677 0 0.005 0 0.011 0 0.016s0 0.009 0 0.014c0 3.144-2.549 5.692-5.692 5.692 0 0 0 0 0 0h-124.341c-2.027 0.004-3.778 1.183-4.61 2.891l-7.166 15.18c-1.728 3.603-5.222 6.112-9.33 6.413-0.262 0.018-0.526 0.028-0.792 0.028-3.919 0-7.37-2.004-9.384-5.043l-16.335-24.994c-0.857-1.311-2.316-2.166-3.975-2.168h-17.514c-0.002 0-0.005 0-0.008 0-2.416 0-4.411 1.8-4.718 4.132l-28.614 225.635c-0.589 4.581-4.463 8.084-9.156 8.087h-0.091c-4.69-0.082-8.523-3.645-9.032-8.21l-30.814-286.25-22.182 140.71c-0.706 4.346-4.391 7.637-8.861 7.725h-0.13c-0.011 0-0.025 0-0.038 0-4.436 0-8.137-3.15-8.987-7.335l-23.050-117.171-12.363 30.298c-2.462 5.941-8.215 10.044-14.926 10.044-0.009 0-0.019 0-0.028 0h-29.604c-0.007 0-0.015 0-0.022 0-0.464 0-0.876 0.223-1.134 0.569l-18.465 24.023c-1.539 1.986-3.916 3.258-6.592 3.283h-0.094c-0.003 0-0.006 0-0.010 0-2.649 0-5.012-1.221-6.558-3.131l-18.459-22.981c-0.879-1.079-2.208-1.762-3.696-1.762-0.003 0-0.006 0-0.008 0h-203.294c0 0 0 0 0 0-3.144 0-5.692-2.549-5.692-5.692 0-0.005 0-0.011 0-0.016s0-0.009 0-0.014c0-3.135 2.542-5.677 5.677-5.677 0.005 0 0.011 0 0.016 0h203.293c0.010 0 0.021 0 0.032 0 5.055 0 9.563 2.338 12.503 5.993l16.137 20.059 16.158-21.082c2.39-3.020 6.055-4.939 10.168-4.939 0.015 0 0.029 0 0.044 0h29.664c1.994-0.006 3.698-1.237 4.401-2.98l18.157-44.501c1.022-2.497 3.433-4.224 6.247-4.224 0.25 0 0.497 0.014 0.74 0.040 2.977 0.306 5.388 2.523 5.986 5.404l23.499 119.913 22.995-145.784c0.702-4.351 4.43-7.635 8.926-7.635 0.001 0 0.003 0 0.004 0zM860.657 400.429v3.177h-29.711v-291.9c-0.545-27.374-22.864-49.356-50.317-49.356-0.31 0-0.62 0.003-0.929 0.008l-538.397-0.001c-0.263-0.005-0.572-0.008-0.883-0.008-27.453 0-49.772 21.982-50.316 49.305l-0.001 291.951h-29.696v-3.177h-104.689l454.776 436.706 454.776-436.706zM1015.597 397.417l-496.203 469.233c-2.411 1.919-5.501 3.080-8.862 3.080s-6.451-1.16-8.891-3.102l-496.159-469.271c-3.346-2.643-5.475-6.7-5.475-11.255 0-1.681 0.29-3.294 0.823-4.793 1.964-5.565 7.27-9.553 13.508-9.553 0.005 0 0.010 0 0.015 0h146.070v-260.051c0.864-43.27 36.145-78.016 79.541-78.016 0.471 0 0.941 0.004 1.411 0.012l538.403-0.001c0.399-0.007 0.869-0.011 1.34-0.011 43.396 0 78.677 34.746 79.54 77.935l0.001 260.131h146.071c0.004 0 0.009 0 0.014 0 6.237 0 11.543 3.988 13.508 9.552 0.531 1.497 0.82 3.109 0.82 4.788 0 4.555-2.127 8.614-5.442 11.237z" />
<glyph unicode="&#xe907;" glyph-name="group-3" d="M985.6 448c-0.303 261.44-212.16 473.297-473.571 473.6-261.469-0.303-473.326-212.16-473.629-473.571 0.303-261.469 212.16-473.326 473.571-473.629 261.469 0.303 473.326 212.16 473.629 473.571zM1024 448c0-282.77-229.23-512-512-512s-512 229.23-512 512c0 282.77 229.23 512 512 512s512-229.23 512-512zM184.32 448l552.96 245.76-245.76-552.96v307.2z" />
<glyph unicode="&#xe908;" glyph-name="group-4" d="M551.212 212.604h0.265c5.449 0.15 9.884 4.298 10.483 9.608l36.692 341.73 31.567-248.249c1.296-9.543 9.367-16.828 19.151-16.878h20.891c6.761 0 12.708 3.484 16.144 8.754l19.36 29.594 8.422-17.849c3.249-6.724 10.004-11.286 17.828-11.317h52.97c3.764 0 6.815 3.051 6.815 6.815s-3.051 6.815-6.815 6.815h-52.966c-2.433 0.005-4.532 1.432-5.51 3.494l-8.579 18.134c-2.061 4.315-6.249 7.317-11.169 7.66-0.322 0.023-0.649 0.035-0.979 0.035-4.677 0-8.795-2.393-11.197-6.021l-19.54-29.922c-1.033-1.572-2.788-2.595-4.782-2.595-0.001 0-0.002 0-0.003 0h-20.939c-2.896 0.002-5.288 2.156-5.664 4.949l-34.237 270.030c-0.708 5.482-5.346 9.674-10.964 9.675h-0.106c-5.644-0.059-10.272-4.332-10.889-9.819l-36.692-342.561-26.483 168.395c-0.836 5.199-5.238 9.14-10.582 9.251h-0.153c-0.020 0-0.043 0-0.066 0-5.296 0-9.713-3.761-10.727-8.757l-27.783-140.235-14.813 36.264c-2.934 7.11-9.812 12.023-17.838 12.023-0.016 0-0.033 0-0.049 0h-35.502c-0.566 0.001-1.070 0.269-1.392 0.685l-22.090 28.729c-1.828 2.389-4.669 3.923-7.869 3.955h-0.111c-0.008 0-0.018 0-0.028 0-3.158 0-5.975-1.46-7.813-3.741l-22.102-27.508c-1.041-1.296-2.625-2.119-4.402-2.119-0.004 0-0.008 0-0.013 0h-94.56c0 0 0 0 0 0-3.754 0-6.797-3.043-6.797-6.797 0-0.006 0-0.012 0-0.019 0 0.001 0 0.001 0 0.001 0-3.758 3.041-6.805 6.796-6.815h94.544c0.012 0 0.025 0 0.039 0 6.052 0 11.45 2.796 14.975 7.167l19.308 24.013 19.421-25.176c2.851-3.648 7.242-5.977 12.178-6.003h35.509c0.014 0 0.031 0 0.047 0 2.36 0 4.383-1.442 5.236-3.494l21.747-53.25c1.226-2.99 4.114-5.057 7.485-5.057 0.292 0 0.581 0.016 0.866 0.046 3.55 0.378 6.422 3.023 7.141 6.458l28.258 143.449 27.383-174.468c0.849-5.168 5.257-9.071 10.587-9.128zM985.653 633.962v-632.567h-186.103v656.207h161.81c12.696-1.177 22.767-11.025 24.281-23.511zM760.373 858.447v-857.053h-146.926v108.332c-1.055 26.976-23.178 48.445-50.316 48.445-0.932 0-1.858-0.025-2.777-0.075l-102.66 0.006c-0.676 0.034-1.469 0.054-2.266 0.054-26.327 0-47.669-21.342-47.669-47.669 0-0.267 0.002-0.534 0.007-0.8l-0.001-108.292h-146.856v857.053c0 23.605 10.77 44.138 22.087 44.138h452.29c11.352 0 25.159-20.462 25.159-44.138zM574.287 109.727v-108.332h-127.347v108.332c0.341 5.173 4.62 9.24 9.849 9.24 0.318 0 0.632-0.015 0.942-0.044l102.749 0.003c5.667 0 13.806-3.531 13.806-9.198zM221.661 657.602v-656.243h-186.103v632.602c0.088 12.195 9.254 22.221 21.070 23.664zM966.268 695.649h-164.458v185.009c-0.060 34.045-27.642 61.627-61.681 61.687h-452.296c-34.037-0.070-61.609-27.649-61.67-61.681v-185.014h-164.476c-34.045-0.060-61.627-27.642-61.687-61.681v-657.855c0-11.35 9.201-20.551 20.551-20.551 0.006 0 0.012 0 0.019 0h986.817c0.005 0 0.011 0 0.018 0 11.34 0 20.533 9.193 20.533 20.533 0 0.006 0 0.012 0 0.019v657.848c-0.060 34.038-27.632 61.617-61.663 61.687zM431.722 726.193h61.634v-61.67c0-11.355 9.205-20.559 20.559-20.559s20.559 9.205 20.559 20.559v61.67h61.722c0.005 0 0.011 0 0.018 0 11.35 0 20.551 9.201 20.551 20.551 0 0.006 0 0.012 0 0.019 0 11.349-9.201 20.55-20.551 20.55-0.006 0-0.012 0-0.019 0h-61.669v61.687c0 11.35-9.201 20.551-20.551 20.551-0.006 0-0.012 0-0.019 0-0.020 0-0.045 0-0.070 0-11.34 0-20.533-9.193-20.533-20.533 0-0.006 0-0.012 0-0.019v-61.686h-61.634c-0.005 0-0.011 0-0.018 0-11.34 0-20.533-9.193-20.533-20.533 0-0.006 0-0.012 0-0.019 0-0.010 0-0.022 0-0.034 0-11.34 9.193-20.533 20.533-20.533 0.006 0 0.012 0 0.019 0zM105.684 580.714c0 0 0 0 0 0 0-3.465-2.804-6.275-6.267-6.285h-20.198c-3.471 0-6.285 2.814-6.285 6.285v20.162c0 0 0 0 0 0 0 3.475 2.812 6.293 6.284 6.303h20.198c3.473-0.010 6.285-2.828 6.285-6.303 0 0 0 0 0 0zM171.185 580.714c0 0 0 0 0 0 0-3.465-2.804-6.275-6.267-6.285h-20.198c-3.471 0-6.285 2.814-6.285 6.285v20.162c0 0 0 0 0 0 0 3.475 2.812 6.293 6.284 6.303h20.198c3.473-0.010 6.285-2.828 6.285-6.303 0 0 0 0 0 0zM105.684 531.58c0 0 0 0 0 0 0-3.465-2.804-6.275-6.267-6.285h-20.198c-3.471 0-6.285 2.814-6.285 6.285v20.162c0 0 0 0 0 0 0 3.475 2.812 6.293 6.284 6.303h20.198c3.473-0.010 6.285-2.828 6.285-6.303 0 0 0 0 0 0zM171.185 531.58c0 0 0 0 0 0 0-3.465-2.804-6.275-6.267-6.285h-20.198c-3.471 0-6.285 2.814-6.285 6.285v20.162c0 0 0 0 0 0 0 3.475 2.812 6.293 6.284 6.303h20.198c3.473-0.010 6.285-2.828 6.285-6.303 0 0 0 0 0 0zM105.684 433.311c0 0 0 0 0 0 0-3.465-2.804-6.275-6.267-6.285h-20.198c-3.471 0-6.285 2.814-6.285 6.285v20.162c0 0 0 0 0 0 0 3.475 2.812 6.293 6.284 6.303h20.198c3.473-0.010 6.285-2.828 6.285-6.303 0 0 0 0 0 0zM171.185 433.311c0 0 0 0 0 0 0-3.465-2.804-6.275-6.267-6.285h-20.198c-3.471 0-6.285 2.814-6.285 6.285v20.162c0 0 0 0 0 0 0 3.475 2.812 6.293 6.284 6.303h20.198c3.473-0.010 6.285-2.828 6.285-6.303 0 0 0 0 0 0zM105.684 384.159c0 0 0 0 0 0 0-3.465-2.804-6.275-6.267-6.285h-20.198c-3.471 0-6.285 2.814-6.285 6.285v20.162c0 0 0 0 0 0 0 3.475 2.812 6.293 6.284 6.303h20.198c3.473-0.010 6.285-2.828 6.285-6.303 0 0 0 0 0 0zM171.185 384.159c0 0 0 0 0 0 0-3.465-2.804-6.275-6.267-6.285h-20.198c-3.471 0-6.285 2.814-6.285 6.285v20.162c0 0 0 0 0 0 0 3.475 2.812 6.293 6.284 6.303h20.198c3.473-0.010 6.285-2.828 6.285-6.303 0 0 0 0 0 0zM105.684 285.89c0 0 0 0 0 0 0-3.465-2.804-6.275-6.267-6.285h-20.198c-3.471 0-6.285 2.814-6.285 6.285v20.162c0 0 0 0 0 0 0 3.475 2.812 6.293 6.284 6.303h20.198c3.473-0.010 6.285-2.828 6.285-6.303 0 0 0 0 0 0zM171.185 285.89c0 0 0 0 0 0 0-3.465-2.804-6.275-6.267-6.285h-20.198c-3.471 0-6.285 2.814-6.285 6.285v20.162c0 0 0 0 0 0 0 3.475 2.812 6.293 6.284 6.303h20.198c3.473-0.010 6.285-2.828 6.285-6.303 0 0 0 0 0 0zM105.684 220.372c0 0 0 0 0 0 0-3.465-2.804-6.275-6.267-6.285h-20.198c-3.471 0-6.285 2.814-6.285 6.285v20.162c0 0 0 0 0 0 0 3.475 2.812 6.293 6.284 6.303h20.198c3.473-0.010 6.285-2.828 6.285-6.303 0 0 0 0 0 0zM171.185 220.372c0 0 0 0 0 0 0-3.465-2.804-6.275-6.267-6.285h-20.198c-3.471 0-6.285 2.814-6.285 6.285v20.162c0 0 0 0 0 0 0 3.475 2.812 6.293 6.284 6.303h20.198c3.473-0.010 6.285-2.828 6.285-6.303 0 0 0 0 0 0zM875.485 580.714c0 0 0 0 0 0 0-3.465-2.804-6.275-6.267-6.285h-20.198c-3.471 0-6.285 2.814-6.285 6.285v20.162c0 0 0 0 0 0 0 3.475 2.812 6.293 6.284 6.303h20.198c3.473-0.010 6.285-2.828 6.285-6.303 0 0 0 0 0 0zM941.003 580.714c0 0 0 0 0 0 0-3.465-2.804-6.275-6.267-6.285h-20.198c-3.471 0-6.285 2.814-6.285 6.285v20.162c0 0 0 0 0 0 0 3.475 2.812 6.293 6.284 6.303h20.198c3.473-0.010 6.285-2.828 6.285-6.303 0 0 0 0 0 0zM875.485 531.58c0 0 0 0 0 0 0-3.465-2.804-6.275-6.267-6.285h-20.198c-3.471 0-6.285 2.814-6.285 6.285v20.162c0 0 0 0 0 0 0 3.475 2.812 6.293 6.284 6.303h20.198c3.473-0.010 6.285-2.828 6.285-6.303 0 0 0 0 0 0zM941.003 531.58c0 0 0 0 0 0 0-3.465-2.804-6.275-6.267-6.285h-20.198c-3.471 0-6.285 2.814-6.285 6.285v20.162c0 0 0 0 0 0 0 3.475 2.812 6.293 6.284 6.303h20.198c3.473-0.010 6.285-2.828 6.285-6.303 0 0 0 0 0 0zM875.485 433.311c0 0 0 0 0 0 0-3.465-2.804-6.275-6.267-6.285h-20.198c-3.471 0-6.285 2.814-6.285 6.285v20.162c0 0 0 0 0 0 0 3.475 2.812 6.293 6.284 6.303h20.198c3.473-0.010 6.285-2.828 6.285-6.303 0 0 0 0 0 0zM941.003 433.311c0 0 0 0 0 0 0-3.465-2.804-6.275-6.267-6.285h-20.198c-3.471 0-6.285 2.814-6.285 6.285v20.162c0 0 0 0 0 0 0 3.475 2.812 6.293 6.284 6.303h20.198c3.473-0.010 6.285-2.828 6.285-6.303 0 0 0 0 0 0zM875.485 384.159c0 0 0 0 0 0 0-3.465-2.804-6.275-6.267-6.285h-20.198c-3.471 0-6.285 2.814-6.285 6.285v20.162c0 0 0 0 0 0 0 3.475 2.812 6.293 6.284 6.303h20.198c3.473-0.010 6.285-2.828 6.285-6.303 0 0 0 0 0 0zM941.003 384.159c0 0 0 0 0 0 0-3.465-2.804-6.275-6.267-6.285h-20.198c-3.471 0-6.285 2.814-6.285 6.285v20.162c0 0 0 0 0 0 0 3.475 2.812 6.293 6.284 6.303h20.198c3.473-0.010 6.285-2.828 6.285-6.303 0 0 0 0 0 0zM875.485 285.89c0 0 0 0 0 0 0-3.465-2.804-6.275-6.267-6.285h-20.198c-3.471 0-6.285 2.814-6.285 6.285v20.162c0 0 0 0 0 0 0 3.475 2.812 6.293 6.284 6.303h20.198c3.473-0.010 6.285-2.828 6.285-6.303 0 0 0 0 0 0zM941.003 285.89c0 0 0 0 0 0 0-3.465-2.804-6.275-6.267-6.285h-20.198c-3.471 0-6.285 2.814-6.285 6.285v20.162c0 0 0 0 0 0 0 3.475 2.812 6.293 6.284 6.303h20.198c3.473-0.010 6.285-2.828 6.285-6.303 0 0 0 0 0 0zM875.485 220.372c0 0 0 0 0 0 0-3.465-2.804-6.275-6.267-6.285h-20.198c-3.471 0-6.285 2.814-6.285 6.285v20.162c0 0 0 0 0 0 0 3.475 2.812 6.293 6.284 6.303h20.198c3.473-0.010 6.285-2.828 6.285-6.303 0 0 0 0 0 0zM941.003 220.372c0 0 0 0 0 0 0-3.465-2.804-6.275-6.267-6.285h-20.198c-3.471 0-6.285 2.814-6.285 6.285v20.162c0 0 0 0 0 0 0 3.475 2.812 6.293 6.284 6.303h20.198c3.473-0.010 6.285-2.828 6.285-6.303 0 0 0 0 0 0z" />
<glyph unicode="&#xe909;" glyph-name="group-5" d="M893.062-38.82h-741.98c-55.078 0-114.151 59.073-114.151 114.151v513.679h941.744v-513.679c0-55.078-30.535-114.151-85.613-114.151zM151.082 817.311h85.613v-57.075h28.538v57.075h485.141v-57.075h28.538v57.075h114.151c55.078 0 85.613-30.535 85.613-85.613v-114.151h-941.744v114.151c0 55.078 59.073 85.613 114.151 85.613zM893.062 845.849h-114.151v114.151h-28.538v-114.151h-485.141v114.151h-28.538v-114.151h-85.613c-70.807 0-142.689-43.344-142.689-114.151v-656.367c0-70.807 71.881-142.689 142.689-142.689h741.98c70.807 0 114.151 71.881 114.151 142.689v656.367c0 70.807-43.344 114.151-114.151 114.151z" />
<glyph unicode="&#xe90a;" glyph-name="group-6" d="M442.78 850.291c0 36.019 29.199 65.218 65.218 65.218s65.218-29.199 65.218-65.218c0-36.019-29.199-65.218-65.218-65.218s-65.218 29.199-65.218 65.218zM617.707 850.291c0 60.591-49.119 109.709-109.709 109.709s-109.709-49.119-109.709-109.709c0.067-60.564 49.146-109.642 109.703-109.709 60.57 0.067 109.649 49.146 109.716 109.703zM305.199 613.935c0.020 17.949 14.561 32.494 32.507 32.521h338.852c17.95-0.027 32.494-14.571 32.521-32.518v-272.94c-0.020-17.953-14.568-32.501-32.519-32.521h-27.485v233.448h-44.491v-530.373c-0.020-17.953-14.568-32.501-32.519-32.521h-6.581c-17.953 0.020-32.501 14.568-32.521 32.519v280.519h-51.659v-280.517c-0.013-17.951-14.559-32.501-32.507-32.521h-6.581c-17.953 0.020-32.501 14.568-32.521 32.519v530.375h-44.467v-233.448h-27.519c-17.95 0.020-32.496 14.57-32.509 32.52zM337.708 263.986h27.519v-252.434c0.047-42.514 34.498-76.965 77.007-77.012h6.56c0.002 0 0.005 0 0.008 0 23.29 0 44.16 10.36 58.252 26.724 14.262-16.363 35.132-26.724 58.421-26.724 0.003 0 0.005 0 0.008 0h6.579c42.514 0.047 76.965 34.498 77.012 77.007v252.438h27.483c42.514 0.047 76.965 34.498 77.012 77.007v272.942c-0.047 42.514-34.498 76.965-77.007 77.012h-338.854c-42.509-0.054-76.953-34.502-77-77.007v-272.942c0.047-42.51 34.492-76.958 76.995-77.012zM222.844 750.257c-26.652 0-48.257 21.606-48.257 48.257 0 0.028 0 0.061 0 0.094 0 26.652 21.606 48.257 48.257 48.257 0 0 0 0 0 0s0 0 0 0c26.652 0 48.257-21.606 48.257-48.257 0-0.033 0-0.066 0-0.099 0-26.647-21.606-48.252-48.257-48.252zM315.639 798.514c-0.034 51.246-41.554 92.782-92.79 92.843-51.248-0.060-92.768-41.597-92.801-92.839 0.087-51.208 41.587-92.692 92.79-92.752 51.215 0.060 92.714 41.543 92.801 92.74zM746.896 798.561c0 26.652 21.606 48.257 48.257 48.257 0.024 0 0.053 0 0.082 0 26.652 0 48.257-21.606 48.257-48.257 0 0 0 0 0 0s0 0 0 0c0-26.652-21.606-48.257-48.257-48.257-0.029 0-0.058 0-0.087 0-26.647 0-48.253 21.606-48.253 48.257zM887.996 798.561c-0.060 51.242-41.597 92.762-92.839 92.796-51.208-0.087-92.692-41.587-92.752-92.79 0.060-51.215 41.543-92.714 92.74-92.801 51.254 0.033 92.791 41.554 92.851 92.79zM80.943 326.65h24.717v-226.739c0.053-38.167 30.973-69.094 69.131-69.161h5.891c20.575 1.694 38.803 10.576 52.417 24.098 8.007 9.494 15.43 20.064 21.882 31.265 0.562 5.547 0.836 9.975 1.364 14.325l-0.052 119.305h-46.374v-119.832c-0.020-16.124-13.089-29.188-29.212-29.202h-5.886c-16.12 0.020-29.182 13.082-29.202 29.2v455.847h-39.96v-189.146h-24.717c-16.124 0.020-29.188 13.089-29.202 29.212v200.658c0.020 16.12 13.082 29.182 29.2 29.202h141.902v40.018h-141.901c-38.184-0.047-69.126-30.989-69.173-69.168v-200.708c0.047-38.184 30.989-69.126 69.168-69.173zM1014.090 399.248v200.657c-0.040 38.187-30.986 69.133-69.169 69.173h-141.904v-39.96h141.901c16.126-0.020 29.193-13.087 29.213-29.211v-200.659c-0.020-16.124-13.089-29.188-29.212-29.202h-24.719v189.146h-40.018v-455.845c-0.020-16.122-13.081-29.187-29.199-29.213h-5.888c-16.121 0.027-29.182 13.092-29.202 29.211v119.833h-46.41v-119.832c0.474-3.816 0.751-8.248 0.765-12.741 7.001-12.265 14.425-22.832 22.71-32.648 13.338-13.203 31.563-22.091 51.834-23.764l6.187-0.020c0.003 0 0.008 0 0.012 0 38.217 0 69.203 30.961 69.244 69.169v226.732h24.717c38.172 0.060 69.097 30.998 69.138 69.169z" />
<glyph unicode="&#xe90b;" glyph-name="group-7" d="M524.246 83.347h0.504c10.279 0.285 18.645 8.111 19.775 18.129l69.271 645.096 59.417-468.606c2.371-18.058 17.648-31.86 36.155-31.895h39.579c0.021 0 0.045 0 0.070 0 12.702 0 23.882 6.521 30.373 16.398l36.529 55.979 15.88-33.683c6.125-12.682 18.868-21.287 33.626-21.336h149.276c7.097 0 12.85 5.753 12.85 12.85s-5.753 12.85-12.85 12.85h-149.269c-4.575 0.012-8.525 2.677-10.395 6.537l-16.188 34.365c-3.905 8.137-11.804 13.801-21.087 14.466-0.613 0.044-1.233 0.067-1.858 0.067-8.829 0-16.602-4.521-21.13-11.375l-36.847-56.498c-1.944-2.947-5.238-4.865-8.98-4.868h-39.542c-5.464 0.007-9.975 4.079-10.671 9.354l-64.635 509.537c-1.346 10.341-10.099 18.246-20.698 18.247h-0.202c-10.658-0.105-19.398-8.182-20.547-18.548l-69.405-646.389-50.126 317.759c-1.584 9.823-9.914 17.262-20.016 17.45h-0.288c-0.035 0-0.077 0-0.119 0-10.012 0-18.362-7.114-20.271-16.562l-52.062-264.602-27.942 68.432c-5.544 13.404-18.518 22.662-33.653 22.662-0.031 0-0.062 0-0.093 0h-66.958c-0.004 0-0.008 0-0.013 0-1.062 0-2.007 0.504-2.609 1.285l-41.696 54.246c-3.46 4.496-8.825 7.378-14.865 7.428h-0.201c-0.020 0-0.044 0-0.068 0-5.964 0-11.284-2.76-14.752-7.073l-41.694-51.891c-1.97-2.445-4.964-3.995-8.32-3.995-0.011 0-0.022 0-0.034 0l-114.628 1.284c-7.097 0-12.85-5.753-12.85-12.85 0.005-7.093 5.756-12.842 12.85-12.842l114.629-1.293c0.023 0 0.050 0 0.077 0 11.415 0 21.597 5.278 28.239 13.528l36.406 45.311 36.52-47.498c5.371-6.899 13.668-11.302 22.993-11.331h67.010c0.004 0 0.008 0 0.012 0 4.477 0 8.313-2.745 9.917-6.643l41.028-100.474c2.303-5.649 7.752-9.558 14.114-9.558 0.554 0 1.101 0.030 1.64 0.087 6.72 0.702 12.157 5.715 13.497 12.224l53.232 270.671 51.939-329.182c1.618-9.8 10.013-17.189 20.141-17.223z" />
<glyph unicode="&#xe90c;" glyph-name="group-8" d="M753.464 372.049h-56.882v-178.95h1.249l-0.774-1.424 149.442-81.708 22.266 40.773-115.3 63.026zM146.719 466.807h360.286v56.857h-360.286zM141.974 324.645h222.795v56.882h-222.795zM729.75-12.6c-125.988 0.163-228.076 102.252-228.24 228.224 0.177 125.992 102.261 228.067 228.224 228.23 125.989-0.17 228.066-102.242 228.243-228.198-0.163-126-102.245-228.086-228.211-228.257zM467.656 135.031h-368.39c-18.316 0.021-33.159 14.864-33.18 33.178v597.181c0.021 18.316 14.864 33.159 33.178 33.18h24.516v-29.047c0.937-41.262 34.608-74.353 76.007-74.353 0.498 0 0.995 0.005 1.491 0.014 0.344-0.009 0.837-0.014 1.33-0.014 41.402 0 75.076 33.089 76.018 74.265l0.002 29.134h321.436v-24.439c0.937-41.262 34.608-74.353 76.007-74.353 0.498 0 0.995 0.005 1.491 0.014 0.396-0.012 0.95-0.018 1.505-0.018 41.403 0 75.078 33.091 76.018 74.269l0.002 24.576h17.346c18.329-0.021 33.18-14.885 33.18-33.218 0-0.004 0-0.009 0-0.013v-286.507c-22.706 6.874-48.806 10.861-75.828 10.927-151.402-0.156-274.070-122.807-274.255-274.152 0-0.045 0-0.077 0-0.11 0-28.735 4.433-56.435 12.653-82.452zM169.809 881.115c0.913 15.864 14 28.383 30.011 28.383 0.513 0 1.023-0.013 1.529-0.038 0.364 0.025 0.874 0.038 1.387 0.038 16.014 0 29.104-12.518 30.019-28.302l0.004-111.647c-0.92-15.872-14.015-28.395-30.036-28.395-0.509 0-1.014 0.013-1.517 0.038-0.361-0.025-0.866-0.038-1.375-0.038-16.018 0-29.111 12.524-30.020 28.314zM646.082 885.66c0.931 15.862 14.022 28.373 30.034 28.373 0.531 0 1.059-0.014 1.583-0.041 0.358 0.025 0.864 0.038 1.373 0.038 16.020 0 29.116-12.523 30.032-28.314l0.004-111.585c-0.913-15.871-14.006-28.395-30.024-28.395-0.513 0-1.023 0.013-1.529 0.038-0.383-0.027-0.914-0.041-1.449-0.041-16.019 0-29.113 12.526-30.020 28.318zM853.017 460.213v305.177c-0.057 44.482-36.101 80.527-80.578 80.584h-17.351v39.661c-0.944 41.263-34.617 74.353-76.020 74.353-0.494 0-0.987-0.005-1.479-0.014-0.348 0.010-0.845 0.014-1.343 0.014-41.4 0-75.071-33.091-76.006-74.266l-0.002-39.748h-321.436v35.116c-0.944 41.257-34.612 74.341-76.007 74.341-0.498 0-0.996-0.005-1.492-0.014-0.347 0.010-0.845 0.014-1.343 0.014-41.395 0-75.063-33.084-76.005-74.253l-0.002-35.203h-24.514c-0.007 0-0.016 0-0.025 0-44.525 0-80.627-36.066-80.684-80.578v-597.21c0.057-44.482 36.101-80.527 80.578-80.584h388.114c46.955-87.537 137.79-146.085 242.311-146.195 151.396 0.178 274.065 122.851 274.235 274.216-0.155 106.364-60.821 198.506-149.406 243.87z" />
<glyph unicode="&#xe90d;" glyph-name="group-9" d="M707.381 214.034c-24.364-26.995-77.506-30.72-131.319-30.72-11.326 0-22.784 0.168-34.595 0.335-8.986 0.132-17.858 0.203-26.748 0.238h-7.318c-13.7 0-18.441-0.115-27.445-0.247-11.396-0.159-23.49-0.327-34.816-0.327-53.848 0-107.273 3.725-131.637 30.72-14.557 16.146-11.811 45.365-9.242 71.142l0.512 5.994c7.283 75.917 95.656 134.285 205.489 135.733 109.956-1.448 198.347-59.789 205.63-135.751l0.583-5.985c2.569-25.785 5.464-55.005-9.092-71.142zM743.759 293.914c-8.554 89.212-106.187 158.155-229.517 161.607v0.185l-4.352-0.053v-4.414l-0.159 4.414h-2.366v-0.132c-123.321-3.443-221.502-72.386-230.056-161.589l-1.209-5.914c-3.001-30.137-7.062-67.655 16.031-93.246 33.474-37.076 96.115-40.218 152.338-40.218 11.326 0 22.66 0.168 34.022 0.344h1.050c10.434 0.15 20.612 0.23 30.72 0.247s20.303-0.097 30.755-0.247h1.059c11.37-0.168 22.784-0.344 34.11-0.344 56.223 0 119.014 3.107 152.497 40.218 23.084 25.6 19.35 63.108 16.349 93.246zM509.29 710.559c56.769-0.060 102.772-46.064 102.833-102.827-0.065-56.771-46.067-102.769-102.827-102.83-56.768 0.065-102.764 46.062-102.83 102.817 0.060 56.772 46.059 102.774 102.817 102.839zM509.29 476.151c72.634 0.085 131.494 58.941 131.584 131.566-0.070 72.658-58.937 131.534-131.576 131.619-72.634-0.111-131.474-58.978-131.539-131.604 0.085-72.623 58.917-131.471 131.521-131.581zM635.604 318.005h-25.441v27.18c-0.628 6.982-6.451 12.412-13.543 12.412-0.055 0-0.111 0-0.166-0.001-0.038 0.001-0.094 0.001-0.149 0.001-7.092 0-12.915-5.431-13.539-12.36l-0.004-27.233h-27.366c-6.978-0.632-12.404-6.453-12.404-13.542 0-0.071 0.001-0.142 0.002-0.213-0.001-0.039-0.001-0.097-0.001-0.156 0-7.092 5.431-12.916 12.36-13.539l27.418-0.004v-25.6c0.645-6.966 6.46-12.377 13.54-12.377 0.053 0 0.107 0 0.16 0.001 0.039-0.001 0.094-0.001 0.149-0.001 7.092 0 12.915 5.431 13.539 12.36l0.004 25.617h25.441c6.982 0.627 12.413 6.451 12.413 13.543 0 0.058 0 0.117-0.001 0.175 0.001 0.051 0.002 0.122 0.002 0.193 0 7.092-5.431 12.916-12.361 13.539zM831.585 679c42.627-0.055 77.169-34.596 77.224-77.218-0.050-42.641-34.597-77.191-77.227-77.247-42.643 0.050-77.193 34.603-77.238 77.237 0.050 42.64 34.605 77.188 77.238 77.228zM831.585 495.139c58.881 0.050 106.602 47.759 106.673 106.631-0.070 58.885-47.792 106.594-106.668 106.644-58.873-0.065-106.577-47.769-106.642-106.631 0.070-58.872 47.771-106.573 106.63-106.643zM897.924 406.952c-0.022 0-0.047 0-0.073 0-7.335 0-13.317-5.794-13.618-13.055s-0.001-0.080-0.001-0.107v0-21.010h-16.481c-7.323-0.254-13.162-6.252-13.162-13.613 0-0.034 0-0.067 0-0.101 0-0.021 0-0.051 0-0.082 0-7.361 5.84-13.359 13.139-13.613l16.495-0.001v-14.495c0.259-7.319 6.255-13.153 13.613-13.153 0.031 0 0.061 0 0.092 0 0.021 0 0.052 0 0.083 0 7.358 0 13.354 5.835 13.612 13.13l0.001 14.519h19.032c7.141 0.529 12.734 6.453 12.734 13.683s-5.593 13.154-12.689 13.68l-19.078 0.003v21.045c-0.25 7.327-6.249 13.171-13.614 13.171-0.031 0-0.061 0-0.092 0zM1019.93 349.263l-1.254 7.239c-7.168 70.135-85.822 123.198-182.422 127.117h-13.7c-54.678-2.428-108.579-23.834-141.427-56.214l-2.834-2.798 5.782-4.299c5.539-3.98 10.357-7.854 14.961-11.964l2.182-2.019 2.322 2.216c29.343 28.054 77.347 45.197 128.318 45.903 84.612-1.121 152.602-45.559 158.155-103.468l0.591-4.864c1.933-19.421 4.114-41.437-6.232-52.966-18.22-20.18-59.039-22.952-100.44-22.952-8.828 0-17.823 0.124-27.074 0.256-7.062 0.106-14.036 0.159-21.010 0.185h-9.869c-6.868 0-12.429-0.079-19.509-0.185h-1.306c-8.439-0.124-16.481-0.23-24.92-0.23-3.602 0-6.771 0-10.355 0.079l-3.743 0.044 0.274-3.734c0.512-6.965 0.989-14.495 0.883-22.29v-3.425h3.434c12.314-0.15 24.541 0 36.723 0.203h0.883c8.174 0.124 16.163 0.168 24.064 0.203s15.89-0.079 24.090-0.203h0.839c8.942-0.141 17.92-0.265 26.818-0.265 44.835 0 94.95 2.525 122.156 32.662 19.129 21.186 16.119 51.465 13.692 75.776zM190.137 679c42.629-0.050 77.174-34.594 77.224-77.219-0.045-42.643-34.595-77.196-77.228-77.246-42.64 0.055-77.187 34.605-77.237 77.236 0.055 42.638 34.606 77.183 77.237 77.229zM190.137 495.139c58.881 0.050 106.602 47.759 106.673 106.631-0.070 58.885-47.792 106.594-106.668 106.644-58.873-0.065-106.577-47.769-106.642-106.631 0.070-58.872 47.771-106.573 106.63-106.643zM238.442 317.722c0.034 0 0.074 0 0.114 0 7.361 0 13.359 5.84 13.613 13.139l0.001 14.509h16.552c7.323 0.254 13.162 6.252 13.162 13.613 0 0.031 0 0.061 0 0.092 0 0.024 0 0.058 0 0.091 0 7.361-5.84 13.359-13.139 13.613l-16.575 0.001v20.551s0 0.291 0 0.318c-0.291 7.369-6.304 13.24-13.703 13.303-0.035 0-0.069 0-0.103 0-7.368 0-13.374-5.836-13.647-13.137l-0.001-21.035h-18.935c-7.307-0.273-13.127-6.263-13.127-13.612 0-0.034 0-0.068 0-0.102 0-0.021 0-0.052 0-0.083 0-7.349 5.82-13.339 13.102-13.611l18.987-0.001v-14.495c0.259-7.319 6.255-13.153 13.613-13.153 0.031 0 0.061 0 0.092 0zM241.487 270.221c-8.43 0-16.481 0.115-24.92 0.23h-1.306c-7.062 0.106-12.65 0.168-19.509 0.185h-9.869c-6.983 0-13.939-0.079-21.010-0.185-9.251-0.132-18.202-0.256-27.074-0.256-41.401 0-82.22 2.781-100.431 22.952-10.364 11.476-8.174 33.501-6.241 52.921l0.591 4.864c5.553 57.918 73.543 102.4 158.155 103.468 50.97-0.671 98.984-17.814 128.318-45.903l2.322-2.216 2.357 2.18c4.422 3.959 9.228 7.838 14.229 11.468l6.304 4.66-2.834 2.798c-32.803 32.406-86.749 53.786-141.427 56.223h-13.7c-96.583-3.937-175.236-56.964-182.387-127.108l-1.254-7.239c-2.419-24.32-5.429-54.572 13.692-75.767 27.207-30.164 77.321-32.662 122.156-32.662 8.907 0 17.876 0.141 26.818 0.265h0.839c8.174 0.124 16.163 0.168 24.099 0.203s15.89-0.079 24.055-0.203h0.883c12.191-0.185 24.408-0.353 36.732-0.203h3.425v3.425c-0.079 7.786 0.38 15.316 0.883 22.298l0.282 3.734-3.752-0.053c-3.584-0.053-6.744-0.079-10.355-0.079z" />
<glyph unicode="&#xe90e;" glyph-name="group-10" d="M26.039 554.015c0 0 0 0 0 0-0.955 0-1.797-0.485-2.292-1.223-0.298-0.439-0.472-0.968-0.472-1.538 0-0.384 0.079-0.75 0.222-1.081 12.783-30.493 65.801-41.486 85.152-43.136 5.959-0.533 10.595-5.502 10.595-11.555 0-0.001 0-0.001 0-0.002 0-52.893 65.849-95.901 146.766-95.901 67.438 0 126.036 30.009 142.461 72.955 8.026 20.291 27.43 34.402 50.143 34.502h187.781c0.007 0 0.016 0 0.025 0 3.086 0 5.89-1.21 7.963-3.181 15.162-13.342 34.867-21.857 56.528-22.974 34.668 0.026 62.58 27.931 62.627 62.367-0.048 34.444-27.96 62.349-62.398 62.385-0.231 0.003-0.5 0.005-0.769 0.005-26.382 0-48.56-18-54.924-42.389-1.344-5.555-5.913-9.331-11.369-9.36h-257.842c-0.088 0-0.192 0-0.297 0-29.171 0-55.571 11.864-74.639 31.029l-163.009 163.009c-0.508 0.497-1.204 0.804-1.972 0.804-0.19 0-0.375-0.019-0.554-0.054-0.93-0.159-1.702-0.786-2.065-1.63-12.19-30.174-23.036-90.631 43.252-156.878 3.844-3.83 6.223-9.129 6.223-14.983 0-2.934-0.598-5.729-1.678-8.269-3.204-7.605-10.727-12.944-19.498-12.944-0.011 0-0.022 0-0.033 0zM265.947 376.383c-1.19-0.024-2.594-0.038-4-0.038-42.511 0-82.106 12.481-115.323 33.978-25.818 15.803-44.657 42.649-49.946 74.093-22.951 4.251-77.975 16.894-94.652 56.642-1.279 2.961-2.023 6.408-2.023 10.030 0 5.361 1.63 10.34 4.422 14.47 4.634 6.987 12.567 11.591 21.575 11.591 0.013 0 0.027 0 0.040 0h141.122c-27.905 26.858-47.381 62.294-54.18 102.056-1 7.019-1.483 13.86-1.483 20.813 0 20.111 4.036 39.278 11.343 56.738 2.952 7.007 9.915 12.879 18.386 14.612 1.683 0.348 3.425 0.53 5.21 0.53 0.027 0 0.054 0 0.081 0 0.020 0 0.048 0 0.076 0 7.148 0 13.617-2.908 18.287-7.606l163.005-163.005c14.9-14.975 35.524-24.242 58.312-24.242 0.071 0 0.142 0 0.213 0h249.093c11.45 30.468 40.343 51.755 74.208 51.755 0.485 0 0.97-0.004 1.453-0.013 47.248 0.001 85.609-38.36 85.609-85.681s-38.361-85.682-85.682-85.682c-26.372 0.903-50.315 10.61-69.151 26.253l-183.317-0.151c-12.931-0.056-23.971-8.092-28.453-19.436-19.884-51.617-87.384-87.708-164.226-87.708zM908.476 519.45h-121.208c-6.406 0-11.598 5.193-11.598 11.598 0.003 4.393 2.443 8.216 6.042 10.189-4.216 1.803-7.17 5.944-7.17 10.775 0 0.693 0.061 1.372 0.177 2.031 1.011 5.378 5.73 9.446 11.4 9.446 0.664 0 1.316-0.056 1.95-0.163l122.331-20.888c5.505-0.972 9.634-5.719 9.634-11.431 0-0.346-0.015-0.688-0.045-1.026-0.519-5.925-5.494-10.572-11.553-10.572zM898.236 252.186c-5.627 0.008-10.315 4.015-11.377 9.33l-37.921 195.073-46.602-195.25c-1.266-5.137-5.834-8.888-11.277-8.888-0.959 0-1.892 0.116-2.783 0.336-5.068 1.242-8.828 5.815-8.828 11.265 0 0.958 0.116 1.888 0.335 2.778l59.125 247.331c1.234 5.143 5.794 8.907 11.232 8.907 0.107 0 0.213-0.001 0.319-0.004 5.507-0.113 10.073-4.076 11.111-9.309l48.077-247.631c0.136-0.666 0.214-1.431 0.214-2.215 0-5.62-4.004-10.304-9.315-11.356-0.738-0.155-1.502-0.238-2.286-0.242zM683.217 251.308c-0.954-0.004-1.795-0.488-2.293-1.223-0.3-0.448-0.475-0.987-0.475-1.566 0-0.373 0.072-0.728 0.203-1.054 14.12-34.672 54.307-92.893 164.042-92.893s149.901 58.222 164.112 92.912c0.129 0.308 0.204 0.666 0.204 1.042 0 0.578-0.178 1.115-0.482 1.559-0.491 0.738-1.329 1.224-2.281 1.224-0.004 0-0.008 0-0.012 0zM844.696 131.375c-2.695-0.121-5.856-0.19-9.033-0.19-46.782 0-90.071 14.95-125.352 40.333-22.040 17.010-39.772 39.81-50.809 66.114-1.624 3.98-2.335 7.357-2.335 10.901 0 5.401 1.653 10.417 4.48 14.568 4.664 6.882 12.546 11.404 21.484 11.404 0.031 0 0.061 0 0.092 0h323.036c0.004 0 0.010 0 0.015 0 8.935 0 16.814-4.522 21.473-11.403 2.824-4.155 4.475-9.172 4.475-14.574 0-3.541-0.709-6.917-1.993-9.993-11.37-27.223-29.103-50.037-51.402-67.213-35.024-25.229-78.314-40.179-125.096-40.179-3.177 0-6.338 0.069-9.482 0.205z" />
<glyph unicode="&#xe90f;" glyph-name="group-11" d="M621.996 199.149c-198.339 0.228-359.062 160.952-359.291 359.268 0.228 198.361 160.952 359.085 359.268 359.313 198.361-0.228 359.085-160.952 359.313-359.268-0.228-198.361-160.952-359.085-359.268-359.313zM44.848-64l317.021 317.021c69.426-59.755 160.452-96.142 259.978-96.142 0.052 0 0.104 0 0.157 0 221.768 0 401.553 179.785 401.553 401.56s-179.785 401.56-401.56 401.56c-221.776 0-401.56-179.785-401.56-401.56 0-0.087 0-0.191 0-0.294 0-99.718 36.52-190.906 96.915-260.919l-317.35-316.4z" />
<glyph unicode="&#xe910;" glyph-name="group-12" d="M56.582 666.362c0.001 4.498 0.483 8.883 1.398 13.107l433.515-341.261c14.191-7.282 16.349-8.478 18.504-9.677-8.724 4.595-5.004 3.686-1.083 3.583l0.037-0.001c3.95 0.111 7.66 1.020 11.014 2.57 0.962 0.456 1.899 0.968 2.802 1.531 1.309 0.57 2.514 1.233 3.658 1.981l437.833 341.029c0.858-3.863 1.353-8.303 1.361-12.857v-441.724c-0.036-34.353-27.874-62.191-62.223-62.227h-784.575c-34.358 0.028-62.204 27.87-62.239 62.223zM118.821 728.601h784.571c9.129-0.021 17.786-2.020 25.573-5.59l-419.975-326.648-415.544 326.706c7.451 3.469 16.172 5.504 25.365 5.532zM118.821 105.834h784.571c65.585 0.078 118.731 53.224 118.809 118.801v441.726c-0.109 27.336-9.525 52.452-25.24 72.366-0.148 0.263-0.223 0.862-0.61 1.362s-1.249 0.949-1.811 1.548c-21.735 26.554-54.466 43.407-91.137 43.545h-784.582c-36.683-0.124-69.411-16.948-90.996-43.262-0.715-0.794-1.414-1.094-1.963-1.744s-0.475-1.136-0.837-1.661c-15.527-19.676-24.936-44.808-25.026-72.134v-441.739c0.085-65.586 53.234-118.731 118.814-118.809z" />
<glyph unicode="&#xe911;" glyph-name="group-13" d="M533.754 382.145c-1.086 0.004-2.136 0.153-3.132 0.429-4.749 1.366-8.226 5.745-8.226 10.937 0 1.081 0.151 2.128 0.433 3.119 16.342 58.766 44.354 175.138 59.6 239.081 7.687 31.837 35.824 55.157 69.447 55.387l164.434 1.252c0.048 0 0.105 0 0.162 0 33.67 0 61.921-23.199 69.64-54.485 16.76-68.759 46.456-190.706 58.061-241.337 0.187-0.772 0.294-1.659 0.294-2.57 0-5.371-3.722-9.873-8.727-11.067-0.848-0.202-1.733-0.309-2.643-0.309-5.379 0-9.886 3.733-11.073 8.749-11.598 50.572-41.271 172.451-57.906 240.626-5.365 21.757-24.711 37.638-47.766 37.638-0.007 0-0.014 0-0.021 0h-0.408l-163.84-1.252c-23.045-0.158-42.316-16.13-47.513-37.597-15.338-64.507-43.509-181.061-59.893-240.294-1.384-4.82-5.746-8.29-10.921-8.306zM780.584-58.516h-92.433c-29.468 0.039-53.346 23.917-53.385 53.381v252.363l-38.047 0.159c-19.379 0.039-35.076 15.751-35.089 35.133 0 0.022 0 0.046 0 0.070 0 0.92 0.108 1.815 0.312 2.672l27.496 114.428c1.25 5.029 5.725 8.697 11.057 8.697 0.921 0 1.816-0.109 2.674-0.316 4.94-1.242 8.598-5.712 8.598-11.036 0-0.923-0.11-1.82-0.317-2.679l-27.063-112.904c0.557-6.396 5.886-11.377 12.379-11.378l49.402-0.205c6.284 0 11.378-5.094 11.378-11.378v-263.623c0.052-16.887 13.721-30.565 30.6-30.629h92.439c16.915 0.026 30.623 13.718 30.674 30.624v263.674c0 6.284 5.094 11.378 11.378 11.378l49.357 0.205c0.005 0 0.011 0 0.017 0 6.446 0 11.75 4.891 12.403 11.165l-28.986 111.010c-0.231 0.856-0.364 1.839-0.364 2.854 0 5.256 3.564 9.68 8.408 10.986 0.936 0.249 1.919 0.382 2.933 0.382 5.256 0 9.68-3.564 10.986-8.408l29.373-112.72c0.225-0.859 0.357-1.846 0.364-2.863-0.026-19.406-15.754-35.126-35.156-35.139l-38.003-0.159v-252.359c-0.026-29.473-23.911-53.359-53.382-53.385zM237.227 937.29c-45.562-0.052-82.483-36.973-82.534-82.529 0.065-45.557 36.981-82.465 82.53-82.517 45.559 0.052 82.475 36.96 82.539 82.506-0.052 45.568-36.973 82.489-82.529 82.541zM237.227 749.534c-58.091 0.065-105.167 47.133-105.244 105.214 0.052 58.121 47.135 105.22 105.237 105.297 58.113-0.078 105.19-47.179 105.229-105.286-0.065-58.090-47.135-105.161-105.216-105.225zM733.434 934.559c-45.059-0.052-81.572-36.565-81.624-81.619 0.065-45.054 36.573-81.555 81.619-81.606 45.056 0.052 81.565 36.552 81.629 81.595-0.052 45.065-36.565 81.579-81.619 81.63zM733.434 748.624c-57.588 0.065-104.257 46.725-104.334 104.304 0.039 57.623 46.722 104.322 104.328 104.387 57.609-0.078 104.279-46.772 104.318-104.376-0.065-57.587-46.728-104.25-104.305-104.315zM289.633-58.516h-104.812c-29.473 0.026-53.359 23.911-53.385 53.382v377.494c0 6.284 5.094 11.378 11.378 11.378s11.378-5.094 11.378-11.378v-377.492c0.052-16.895 13.734-30.577 30.624-30.629h104.817c16.915 0.026 30.623 13.718 30.674 30.624v377.497c0 6.284 5.094 11.378 11.378 11.378s11.378-5.094 11.378-11.378v-377.492c-0.026-29.489-23.937-53.385-53.43-53.385zM79.622 324.619c-6.284 0-11.378 5.094-11.378 11.378v287.175c0.039 37.855 30.709 68.533 68.557 68.585h109.459c6.284 0 11.378-5.094 11.378-11.378s-5.094-11.378-11.378-11.378h-109.431c-25.298-0.052-45.791-20.552-45.83-45.849v-287.156c0-6.284-5.094-11.378-11.378-11.378zM394.832 324.619c-6.284 0-11.378 5.094-11.378 11.378v287.175c-0.026 25.318-20.536 45.836-45.849 45.875h-109.458c-6.284 0-11.378 5.094-11.378 11.378s5.094 11.378 11.378 11.378h109.454c37.894-0.013 68.608-30.735 68.608-68.631 0-0.008 0-0.016 0-0.024v-287.151c0-6.284-5.094-11.378-11.378-11.378zM237.227-58.516c-6.284 0-11.378 5.094-11.378 11.378v341.561c0 6.284 5.094 11.378 11.378 11.378s11.378-5.094 11.378-11.378v-341.561c0-6.284-5.094-11.378-11.378-11.378zM733.434-57.424c-6.284 0-11.378 5.094-11.378 11.378v304.765c0 6.284 5.094 11.378 11.378 11.378s11.378-5.094 11.378-11.378v-304.765c0-6.284-5.094-11.378-11.378-11.378z" />
<glyph unicode="&#xe912;" glyph-name="group-14" d="M568.972 422.097c61.187-13.038 113.266-45.614 150.708-90.765 37.987-45.913 60.829-104.823 60.864-169.067 0-2.335 0-4.872-0.116-7.688v-136.541h24.413v135.843c0 2.793 0.116 5.585 0.116 8.378-0.011 139.246-98.237 255.547-229.179 283.403-4.006 0.871-5.542 2.752-5.542 4.992s1.536 4.121 3.612 4.647c132.847 28.229 231.046 144.518 231.062 283.747v144.293h-24.343v-144.291c-0.040-64.251-22.88-123.159-60.867-169.080-37.447-45.126-89.538-77.675-148.986-90.356-15.107-3.055-25.016-14.72-25.016-28.7 0-0.075 0-0.15 0.001-0.225-0.001-0.052-0.001-0.127-0.001-0.202 0-13.98 9.909-25.646 23.086-28.357zM456.588 446.022c-132.834-28.223-231.048-144.535-231.052-283.787v0-144.175h24.39v144.175c0 0.023 0 0.050 0 0.076 0 127.501 89.94 233.996 209.836 259.501 15.101 3.053 25.010 14.718 25.010 28.698 0 0.067 0 0.133-0.001 0.2 0 0.047 0.001 0.116 0.001 0.184 0 13.985-9.907 25.655-23.086 28.376-61.379 13.057-113.462 45.636-150.896 90.797-38.007 45.946-60.852 104.899-60.864 169.189v144.294h-24.39v-144.291c0-0.045 0-0.098 0-0.151 0-139.251 98.217-255.562 229.154-283.438 4.044-0.834 5.621-2.729 5.621-4.993s-1.577-4.159-3.691-4.648zM821.039 959.977h-611.584l16.291-56.46h579.002zM756.061 17.711v20.945c0 0.559 0 1.164 0 1.745-0.74 9.793-5.833 18.262-13.329 23.555-1.682 1.207-3.288 2.394-4.917 3.441-47.183 31.090-103.678 52.017-164.512 58.349-20.544 2.471-36.229 14.43-43.782 30.896-5.223 11.384-8.189 24.312-8.189 37.932 0 0.003 0 0.006 0 0.009v254.138c0 0.652 0 1.28 0 1.932-0.001 0.108-0.001 0.235-0.001 0.362 0 25.701 18.24 47.141 42.481 52.083 55.887 11.91 103.155 41.511 137.118 82.53 6.833 8.25 13.123 16.963 18.819 26.085 1.569 2.591 2.149 4.507 2.149 6.558 0 5.874-4.762 10.636-10.636 10.636-1.225 0-2.402-0.207-3.497-0.588-56.691-19.5-122.1-30.772-190.141-30.772-0.807 0-1.614 0.002-2.421 0.005-0.561-0.003-1.374-0.005-2.187-0.005-68.070 0-133.505 11.28-194.539 32.074 3.233-0.904 2.066-0.7 0.852-0.7-5.874 0-10.636-4.762-10.636-10.636 0-2.047 0.578-3.959 1.581-5.582 6.244-10.085 12.535-18.798 19.373-27.040 33.988-41.020 81.273-70.607 135.247-82.152 26.004-5.259 44.16-26.449 44.405-51.923v-256.888c0-0.041 0-0.089 0-0.137 0-13.59-2.957-26.49-8.264-38.091-7.459-16.231-23.154-28.192-41.84-30.494-62.891-6.509-119.556-27.522-168.275-59.614l-2.875-2.108c-6.245-4.361-10.809-10.756-12.751-18.21-0.582-2.368-0.887-4.83-0.887-7.364 0-0.017 0-0.035 0-0.052v-20.919zM804.771-2.048h-579.049l-16.291-56.46h611.631z" />
<glyph unicode="&#xe913;" glyph-name="group-15" d="M688.061 106.34c6.059 14.766 18.842 25.676 34.434 29.016 4.479 0.677 9.285 1.031 14.174 1.031 27.621 0 52.601-11.307 70.564-29.545l0.012-0.012 2.872 2.226c3.183-2.226 6.901-1.291 10.752-1.291 6.485 0.458 12.070 3.939 15.402 9.028 2.149 3.147 3.404 6.941 3.404 11.028 0 6.446-3.121 12.164-7.934 15.724-28.649 21.57-64.767 34.522-103.911 34.522-0.349 0-0.697-0.001-1.045-0.003l-13.993-1.269 1.981 14.136c2.268 21.717 3.562 46.921 3.562 72.428 0 54.030-5.805 106.704-16.826 157.432 0.62-3.89-37.201 160.195-58.46 477.145-0.786 9.848-8.972 17.542-18.954 17.542-0.012 0-0.024 0-0.036 0-10.328-0.234-18.613-8.664-18.613-19.028 0-0.354 0.010-0.706 0.029-1.055 22.014-328.166 59.657-485.439 60.102-487.019 34.349-189.507 0.735-258.493-0.712-261.343-1.325-2.207-2.248-4.805-2.595-7.583l-1.568-4.549c-2.234-3.577-4.564-7.868-6.653-12.295-26.466-56.576-81.548-94.83-145.715-96.268l-5.239-0.27c-65.738 0.799-122.133 39.983-147.88 96.142-10.971 25.905-31.845 44.64-57.519 52.071-7.932 2.148-16.321 3.294-24.977 3.294-0.001 0-0.001 0-0.002 0-35.967-2.344-68.691-14.499-96.022-33.786-3.418-2.446-6.239-6.733-7.118-11.691-0.192-1.075-0.292-2.182-0.292-3.312 0-4.068 1.296-7.832 3.497-10.905 3.515-4.672 9.112-7.699 15.417-7.699 4.027 0 7.765 1.234 10.857 3.346 20.567 14.524 45.652 24.155 72.804 26.627 5.919-0.014 11.047-0.774 15.917-2.149 14.728-4.337 26.679-15.302 32.369-29.459 31.796-70.237 100.317-118.308 180.235-119.853l4.25 0.487 3.829-0.49 0.378-11.13-0.134 11.13c79.365 1.541 147.337 48.769 178.837 116.409zM176.44 445.997c-3.851-0.006-7.427-1.178-10.395-3.181-5.722-3.765-141.335-94.544-163.084-226.217-1.676-10.364-2.633-22.31-2.633-34.481 0-56.037 20.3-107.334 53.947-146.936 19.075-25.554 47.282-43.882 79.781-50.186 6.614-0.933 13.305-1.39 20.103-1.39 35.165 0 67.476 12.221 92.917 32.647 3.705 2.617 6.512 6.906 7.373 11.862 0.198 1.086 0.302 2.208 0.302 3.353 0 4.037-1.292 7.773-3.484 10.816-3.52 4.675-9.121 7.702-15.43 7.702-4.030 0-7.772-1.235-10.867-3.348-19.212-15.057-43.49-24.596-69.94-25.814-29.143 0.594-54.554 14.887-70.349 36.62-29.037 33.737-46.613 77.655-46.613 125.679 0 9.555 0.696 18.948 2.039 28.13 18.908 115.047 145.416 199.304 146.796 200.195 5.080 3.441 8.375 9.185 8.375 15.698 0 3.859-1.157 7.448-3.142 10.44-3.374 5.070-9.142 8.412-15.689 8.412-0.002 0-0.004 0-0.006 0zM958.687 33.837c34.106 39.821 54.864 91.953 54.864 148.932 0 11.938-0.911 23.663-2.668 35.109-21.587 130.505-157.2 221.106-162.966 224.98-2.913 1.879-6.471 2.996-10.29 2.996-6.53 0-12.298-3.266-15.758-8.253-2.002-2.974-3.17-6.56-3.17-10.418 0-1.347 0.142-2.66 0.413-3.926 1.019-4.897 3.956-9.093 7.989-11.766 5.323-3.538 127.869-86.393 146.791-201.037 1.185-8.078 1.862-17.402 1.862-26.886 0-48.774-17.907-93.367-47.504-127.561-13.598-16.948-32.918-29.214-55.039-33.881-4.389-0.557-8.746-0.812-13.162-0.812-27.094 0-51.949 9.583-71.362 25.544-2.81 1.989-6.557 3.273-10.604 3.273-0.023 0-0.045 0-0.068 0 0.001 0-0.003 0-0.006 0-6.333 0-11.937-3.123-15.356-7.912-2.194-3.058-3.486-6.805-3.486-10.854 0-1.149 0.104-2.273 0.303-3.364 0.888-4.969 3.735-9.26 7.714-12.045 25.175-20.178 57.425-32.359 92.519-32.359 6.818 0 13.528 0.46 20.102 1.35 31.841 6.306 59.519 23.967 78.661 48.591z" />
<glyph unicode="&#xe914;" glyph-name="group-16" horiz-adv-x="1018" d="M149.262 234.993l551.594 579.129c1.214-6.329 4.218-11.816 8.458-16.070l164.077-156.309-547.021-574.367c-19.139-15.662-135.259-40.095-247.934-56.697 24.464 102.651 55.601 207.275 70.825 224.315zM757.303 873.388c10.517 11.043 25.23 18.006 41.572 18.324l1.562 0.001c0.072 0 0.157 0 0.242 0 15.807 0 30.162-6.218 40.752-16.342l90.38-85.934c11.040-10.519 18.003-25.231 18.324-41.571 0.017-0.577 0.027-1.187 0.027-1.799 0-15.808-6.215-30.165-16.336-40.759l-16.956-17.801-164.078 156.278c-4.423 4.020-10.069 6.768-16.318 7.625zM34.144-64c1.53 0.006 3.032 0.097 4.509 0.268 109.199 13.953 298.4 43.398 336.584 83.494l608.041 638.395c21.766 22.751 35.163 53.663 35.163 87.705 0 1.235-0.018 2.466-0.053 3.693-0.76 35.051-15.756 66.636-39.443 89.17l-90.425 86.161c-22.697 21.748-53.555 35.137-87.539 35.137-1.293 0-2.582-0.019-3.866-0.058-35.043-0.76-66.628-15.756-89.162-39.443l-608.123-638.542c-39.062-40.941-85.673-243.486-99.048-304.569-0.494-2.181-0.777-4.686-0.777-7.257 0-8.911 3.401-17.028 8.976-23.123 6.215-6.761 15.127-11.007 25.032-11.031z" />
<glyph unicode="&#xe915;" glyph-name="group-17" d="M594.549 200.031h0.351c7.040 0.193 12.77 5.553 13.54 12.414l47.388 441.569 40.667-320.746c1.634-12.352 12.087-21.788 24.749-21.811h27.080c0.011 0 0.025 0 0.039 0 8.686 0 16.331 4.453 20.779 11.2l25.014 38.318 10.884-23.040c4.191-8.695 12.922-14.596 23.036-14.629h192.092c4.847 0 8.777 3.93 8.777 8.777s-3.93 8.777-8.777 8.777h-192.073c-3.138 0.002-5.849 1.827-7.133 4.473l-11.080 23.453c-2.673 5.575-8.083 9.457-14.441 9.915-0.412 0.029-0.828 0.044-1.247 0.044-6.053 0-11.383-3.095-14.495-7.788l-25.201-38.508c-1.323-2.028-3.58-3.35-6.147-3.35-0.004 0-0.008 0-0.013 0h-27.077c-0.016 0-0.034 0-0.053 0-3.73 0-6.808 2.792-7.258 6.401l-44.211 348.708c-0.911 7.079-6.899 12.493-14.153 12.493-0.008 0-0.016 0-0.024 0h-0.13c-7.295-0.072-13.277-5.598-14.067-12.691l-47.519-442.477-34.289 217.527c-1.096 6.714-6.787 11.797-13.692 11.937h-0.219c-0.019 0-0.042 0-0.065 0-6.856 0-12.575-4.867-13.89-11.334l-35.621-181.105-19.105 46.811c-3.796 9.18-12.68 15.521-23.045 15.521-0.024 0-0.048 0-0.072 0h-45.857c-0.012 0-0.026 0-0.040 0-0.72 0-1.358 0.349-1.755 0.887l-28.53 37.133c-2.389 3.081-6.082 5.051-10.236 5.076h-0.077c-0.027 0-0.058 0-0.090 0-4.091 0-7.741-1.884-10.131-4.833l-28.457-35.513c-1.352-1.665-3.399-2.721-5.692-2.721-0.010 0-0.019 0-0.029 0h-314.162c-4.847 0-8.777-3.93-8.777-8.777s3.93-8.777 8.777-8.777h314.149c0.017 0 0.038 0 0.059 0 7.809 0 14.774 3.612 19.316 9.256l24.906 31.017 25.029-32.563c3.679-4.718 9.355-7.73 15.737-7.753h45.864c0.010 0 0.022 0 0.033 0 3.054 0 5.671-1.872 6.766-4.53l28.075-68.803c1.581-3.864 5.311-6.537 9.667-6.537 0.382 0 0.76 0.021 1.132 0.061 4.607 0.492 8.329 3.941 9.232 8.413l36.437 185.236 35.547-225.28c1.114-6.708 6.86-11.763 13.792-11.791z" />
<glyph unicode="&#xe916;" glyph-name="group-18" d="M988.062 122.861c-0.092-83.38-67.66-150.947-151.030-151.039h-650.263c-83.384 0.105-150.954 67.659-151.086 151.027v650.267c0.119 83.435 67.757 151.033 151.196 151.086h650.259c83.341-0.171 150.845-67.732 150.924-151.078zM837.023 960h-650.254c-103.147-0.132-186.723-83.733-186.815-186.876v-650.263c0.105-103.166 83.716-186.769 186.876-186.861h650.263c103.108 0.184 186.637 83.746 186.769 186.849v650.267c-0.132 103.144-83.698 186.727-186.823 186.884zM349.425 138.504h325.844v35.845h-325.844zM666.013 530.277c-36.65 31.742-83.687 52.39-135.399 56.277l-0.784 123.087h-35.799v-123.039c-52.497-3.887-99.538-24.545-136.449-56.57l-129.090 128.746c73.93 68.444 173.216 110.429 282.308 110.429 0.402 0 0.803-0.001 1.204-0.002 0.249 0.001 0.617 0.001 0.985 0.001 109.115 0 208.424-41.984 282.655-110.68zM511.942 805.003c-0.318 0.001-0.695 0.001-1.072 0.001-125.31 0-238.715-50.974-320.61-133.318l-12.724-12.724 179.919-178.739 12.612 12.635c36.156 36.323 86.194 58.801 141.482 58.801 0.138 0 0.277 0 0.415 0 0.079 0 0.198 0 0.316 0 55.291 0 105.332-22.478 141.484-58.793l12.573-12.642 179.873 178.739-12.704 12.704c-81.834 82.361-195.169 133.339-320.409 133.339-0.438 0-0.877-0.001-1.315-0.002z" />
<glyph unicode="&#xe917;" glyph-name="group-19" d="M518.22 174.63c-0.018 0-0.040 0-0.062 0-10.913 0-20.79 4.436-27.926 11.604l-478.627 478.589c-7.172 7.166-11.608 17.069-11.608 28.008s4.436 20.842 11.607 28.008c7.167 7.172 17.069 11.608 28.009 11.608s20.842-4.436 28.008-11.607l450.598-450.598 450.598 450.522c7.166 7.172 17.069 11.608 28.008 11.608s20.842-4.436 28.008-11.607c7.172-7.167 11.608-17.069 11.608-28.009s-4.436-20.842-11.607-28.008l-478.625-478.512c-7.137-7.169-17.014-11.605-27.927-11.605-0.022 0-0.044 0-0.065 0z" />
<glyph unicode="&#xe918;" glyph-name="group-20" d="M511.988 6.186c-243.887 0.282-441.52 197.915-441.801 441.775 0.282 243.914 197.915 441.547 441.775 441.828 243.914-0.282 441.547-197.915 441.828-441.775-0.282-243.914-197.915-441.547-441.775-441.828zM511.988 959.975c-282.682-0.31-511.748-229.42-511.988-512.088 0.394-282.603 229.398-511.563 511.956-511.887 282.665 0.324 511.696 229.355 512.019 511.957-0.31 282.669-229.349 511.708-511.958 512.018zM521.587 666.513c48.959-0.070 88.625-39.754 88.667-88.712-0.042-48.961-39.712-88.639-88.662-88.696-48.961 0.056-88.63 39.734-88.672 88.688 0.042 48.966 39.708 88.65 88.66 88.72zM521.587 418.894c87.709 0.113 158.78 71.192 158.878 158.894-0.098 87.721-71.169 158.8-158.867 158.912-87.72-0.113-158.791-71.192-158.889-158.894 0.098-87.721 71.169-158.8 158.867-158.912zM824.821 284.31c-27.030 78.111-99.442 133.423-184.936 134.607-0.824 0.049-1.622 0.076-2.425 0.076-7.874 0-15.141-2.602-20.987-6.992-26.014-19.788-59.038-31.781-94.858-31.899-35.91 0.158-68.959 12.162-95.497 32.3-5.367 4.007-12.627 6.588-20.489 6.588-0.791 0-1.576-0.026-2.353-0.078-86.044-1.251-158.795-57.229-185.031-134.665-1.868-5.108-2.712-9.405-2.712-13.898 0-14.888 9.268-27.611 22.349-32.716 3.953-1.553 8.255-2.406 12.757-2.408 14.884 0.019 27.601 9.278 32.723 22.348 15.384 50.104 59.342 86.414 112.294 90.17 35.732-23.67 79.201-37.808 125.97-37.853 46.747 0.038 90.17 14.187 126.258 38.417 52.173-4.205 95.902-40.033 111.233-88.485 5.486-14.12 18.165-23.302 32.99-23.302 4.56 0 8.917 0.869 12.915 2.45 12.986 5.158 22.168 17.838 22.168 32.662 0 4.56-0.869 8.917-2.45 12.915z" />
<glyph unicode="&#xe919;" glyph-name="group-21" d="M683.008 297.886c-48.092-47.753-104.209-87.505-166.134-117.044l-4.532-2.082-0.975 0.512c-65.621 31.092-121.771 70.848-169.923 118.649l-3.084 3.402h347.746zM632.149 73.923l6.68-3.852h-253.269l6.656 3.852c27.453 15.872 58.368 31.695 88.259 46.787l30.72 15.701 32.597-15.701c29.915-15.214 60.83-30.915 88.259-46.787zM312.661 338.505c-15.305 24.079-25.481 52.832-28.3 83.712l-0.25 3.011h456.265l-0.195-2.267c-2.954-31.097-12.461-59.439-27.12-84.39l-0.089-0.066zM284.306 464.652c2.938 31.088 12.446 59.426 27.118 84.36l400.353-0.002c15.305-24.049 25.496-52.764 28.348-83.606l0.251-3.019h-456.265zM341.48 589.726c48.095 47.751 104.211 87.503 166.135 117.044 70.118-29.019 126.946-68.849 175.419-117.069l3.071-3.437h-347.746zM392.314 813.69l-6.656 3.852h253.172l-6.68-3.852c-27.429-15.872-58.344-31.695-88.259-46.787l-31.695-16.189-31.695 16.189c-29.891 15.189-60.806 30.915-88.259 46.787zM780.654 443.806c0 142.214-107.593 222.086-223.842 285.647l4.876 2.438c112.616 57.246 218.965 111.323 218.965 207.409 0 0.007 0 0.016 0 0.024 0 11.392-9.235 20.626-20.626 20.626-0.009 0-0.017 0-0.026 0-11.39 0-20.625-9.235-20.625-20.626 0-0.009 0-0.017 0-0.026-2.559-34.295-20.508-63.93-46.891-82.291l-360.149-0.237c-26.76 18.598-44.71 48.261-47.205 82.219-0.021 11.765-9.267 21.010-20.672 21.010s-20.651-9.246-20.651-20.651c0-96.085 106.374-150.162 218.99-207.409l4.876-2.438c-116.248-63.561-223.866-143.433-223.866-285.647s107.618-222.135 223.866-285.696l-4.876-2.438c-112.616-57.246-218.99-111.323-218.99-207.409 0-11.405 9.246-20.651 20.651-20.651s20.651 9.246 20.651 20.651c2.516 34.318 20.466 63.98 46.866 82.341l360.15 0.237c26.766-18.618 44.722-48.293 47.229-82.265 0.014-0.573 0.009-0.822 0.009-1.071 0-11.405 9.246-20.651 20.651-20.651s20.651 9.246 20.651 20.651c0 0.249-0.004 0.498-0.013 0.745 0.001 96.049-106.349 150.126-218.964 207.373l-4.876 2.438c116.248 63.61 223.842 143.458 223.842 285.696z" />
<glyph unicode="&#xe91a;" glyph-name="group-22" d="M859.311-32.855c-36.853 0.043-66.717 29.907-66.76 66.756 0 36.875 29.889 66.764 66.76 66.764s66.76-29.889 66.76-66.76c-0.043-36.853-29.907-66.717-66.756-66.76zM428.581 120.070c0-92.884-68.433-152.901-177.676-152.901-86.865 0-147.506 36.315-147.506 88.314 0 52.798 61.415 88.289 152.876 88.289 0.408 0.001 0.893 0.001 1.378 0.001 60.312 0 119.585-4.449 177.508-13.037zM859.311 141.574c-40.165-0.163-75.111-22.349-93.404-55.101-82.826 31.060-181.491 58.854-283.211 77.997l-11.056 215.646c177.876 24.451 280.002 345.787 280.002 450.66 0 67.434-41.609 107.67-111.291 107.67h-23.902c-7.523 12.946-21.313 21.52-37.109 21.554-23.799 0-43.088-19.289-43.088-43.083 0.014-23.783 19.298-43.058 43.083-43.058 15.794 0.034 29.581 8.596 37.004 21.325l24.012 0.204c68.208 0 70.381-48.603 70.381-64.612-0.025-102.125-106.521-409.325-260.645-409.325s-260.571 307.2-260.571 409.325c0 15.984 2.173 64.612 70.356 64.612h23.927c7.532-12.933 21.319-21.495 37.109-21.529 23.785 0 43.063 19.278 43.063 43.058 0 0.009 0 0.018 0 0.026 0 0.006 0 0.015 0 0.024 0 23.78-19.278 43.058-43.058 43.058-15.8-0.034-29.591-8.608-37.004-21.349l-24.012-0.205c-69.682 0-111.266-40.236-111.266-107.67 0-104.898 102.025-426.184 279.977-450.635v-207.298c-51.325 7.472-110.583 11.739-170.838 11.739-0.525 0-1.050 0-1.575-0.001-115.831 0-193.755-51.899-193.755-129.199 0-76.101 77.424-129.224 188.466-129.224 132.046 0 220.759 77.899 220.759 193.836v2.498c108.189-20.658 202.455-47.532 293.146-81.696-12.446 0.351-13.17-3.196-13.17-6.917 0-59.471 48.211-107.682 107.682-107.682s107.682 48.211 107.682 107.682c-0.071 59.445-48.248 107.613-107.689 107.67z" />
<glyph unicode="&#xe91b;" glyph-name="group-23" d="M291.149 899.763c-142.413 0-230.912-103.859-230.912-271.053 0-141.082 78.822-295.322 227.968-446.029 66.79-67.275 139.987-128.010 218.657-181.27 88.941 53.273 162.137 114.006 228.85 181.186 149.229 150.817 228.052 305.057 228.052 446.139 0 167.194-88.474 271.053-230.912 271.053-105.523 0-167.501-76.8-195.072-122.573l-25.779-42.906-25.805 42.88c-27.571 45.773-89.549 122.573-195.046 122.573zM512-64v0c-0.014 0-0.031 0-0.048 0-9.89 0-19.111 2.861-26.882 7.801-89.787 59.74-168.264 124.482-239.536 196.379-160.67 162.361-245.534 331.244-245.534 488.53 0 198.17 116.992 331.29 291.149 331.29 90.585-1.010 170.587-45.428 220.307-113.396 50.808 67.968 130.81 112.386 221.235 113.395 174.317 0.001 291.309-133.119 291.309-331.288 0-157.286-84.864-326.144-245.402-488.397-71.366-71.997-149.816-136.746-234.288-193.187-13.068-8.266-22.309-11.127-32.218-11.127-0.032 0-0.064 0-0.097 0z" />
<glyph unicode="&#xe91c;" glyph-name="group-24" d="M754.402 365.842h-57.487v-180.843h1.31l-0.786-1.429 151.052-82.563 22.504 41.198-116.593 63.679zM141.241 461.598h364.068v57.463h-364.068zM136.454 317.952h225.137v57.487h-225.137zM730.422-22.849c-127.321 0.203-230.476 103.383-230.638 230.694 0.216 127.301 103.35 230.427 230.618 230.63 127.308-0.203 230.441-103.328 230.658-230.593-0.203-127.317-103.342-230.456-230.618-230.659zM465.563 126.416h-372.212c-18.507 0.027-33.503 15.023-33.53 33.527v603.424c0.027 18.507 15.023 33.503 33.527 33.53h24.769v-29.41c0.939-41.701 34.966-75.147 76.806-75.147 0.517 0 1.033 0.005 1.548 0.015 0.375-0.011 0.908-0.016 1.442-0.016 41.844 0 75.877 33.444 76.827 75.060l0.002 29.451h324.822v-24.6c0.939-41.701 34.966-75.147 76.806-75.147 0.517 0 1.033 0.005 1.548 0.015 0.325-0.009 0.8-0.013 1.275-0.013 41.843 0 75.875 33.442 76.827 75.056l0.002 24.831h17.527c18.507-0.027 33.503-15.023 33.53-33.527v-289.533c-22.944 6.939-49.319 10.963-76.624 11.026-152.995-0.176-276.946-124.135-277.109-277.083 0-0.037 0-0.062 0-0.087 0-29.050 4.484-57.052 12.798-83.353zM164.626 880.342c0.965 16.001 14.177 28.612 30.335 28.612 0.512 0 1.022-0.013 1.528-0.038 0.371 0.026 0.889 0.039 1.409 0.039 16.158 0 29.37-12.612 30.331-28.528l0.004-112.939c-0.964-16.001-14.177-28.613-30.335-28.613-0.521 0-1.039 0.013-1.553 0.039-0.363-0.025-0.872-0.038-1.385-0.038-16.158 0-29.37 12.611-30.331 28.527zM645.977 884.938c0.964 16.001 14.177 28.613 30.335 28.613 0.521 0 1.039-0.013 1.553-0.039 0.37 0.026 0.888 0.039 1.408 0.039 16.158 0 29.37-12.612 30.331-28.528l0.004-112.772c-0.964-16.001-14.177-28.613-30.335-28.613-0.521 0-1.039 0.013-1.553 0.039-0.384-0.027-0.918-0.041-1.456-0.041-16.159 0-29.372 12.613-30.331 28.531zM855.040 455.001v308.367c-0.054 44.958-36.485 81.39-81.439 81.444h-17.532v40.079c-0.952 41.704-34.985 75.147-76.829 75.147-0.509 0-1.017-0.005-1.524-0.015-0.362 0.010-0.878 0.015-1.395 0.015-41.839 0-75.866-33.446-76.804-75.060l-0.002-40.166h-324.775v35.483c-0.952 41.691-34.974 75.123-76.805 75.123-0.517 0-1.034-0.005-1.549-0.015-0.361 0.010-0.877 0.015-1.394 0.015-41.831 0-75.853-33.433-76.803-75.035l-0.002-35.571h-24.767c-44.958-0.054-81.39-36.485-81.444-81.439v-603.498c0.054-44.958 36.485-81.39 81.439-81.444h392.197c47.472-88.423 139.259-147.553 244.866-147.647 152.945 0.217 276.861 124.141 277.065 277.055-0.162 107.486-61.47 200.595-150.989 246.434z" />
<glyph unicode="&#xe91d;" glyph-name="group-25" d="M940.847 960l-428.847-428.847-428.847 428.847-83.153-83.153 428.791-428.847-428.791-428.847 83.153-83.153 428.847 428.847 428.847-428.847 83.153 83.153-428.847 428.847 428.847 428.847z" />
<glyph unicode="&#xe91e;" glyph-name="group-26" d="M910.222 81.383h-796.444c-42.159 1.267-75.853 35.746-75.853 78.094 0 0.127 0 0.254 0.001 0.381v363.993h948.148v-364.013c0.001-0.107 0.001-0.235 0.001-0.362 0-42.349-33.694-76.828-75.736-78.092zM113.778 814.617h796.444c0.652 0.021 1.419 0.033 2.188 0.033 40.549 0 73.445-32.762 73.664-73.259v-78.477h-948.148v78.456c0.218 40.518 33.115 73.28 73.664 73.28 0.769 0 1.536-0.012 2.3-0.035zM1024 751.407c0 55.856-45.28 101.136-101.136 101.136h-821.728c-55.856 0-101.136-45.28-101.136-101.136v-606.815c0-55.856 45.28-101.136 101.136-101.136h821.728c55.856 0 101.136 45.28 101.136 101.136z" />
<glyph unicode="&#xe91f;" glyph-name="group-27" d="M124.015 462.364c0 213.988 173.472 387.459 387.459 387.459s387.459-173.472 387.459-387.459c-0.236-213.893-173.567-387.223-387.437-387.459-213.916 0.236-387.246 173.567-387.482 387.437zM954.285 462.364c0 244.558-198.253 442.811-442.811 442.811s-442.811-198.253-442.811-442.811c0.077-140.343 65.566-265.374 167.628-346.268l-106.215-134.596 43.229-34.595 109.54 136.967c65.097-40.384 144.068-64.321 228.629-64.321s163.532 23.936 230.507 65.403l107.662-138.050 43.229 34.595-107.133 133.895c102.979 81.596 168.468 206.627 168.545 346.957zM539.15 711.445h-55.351v-249.081c0-0.001 0-0.003 0-0.004 0-9.56 4.847-17.987 12.217-22.96l166.152-110.765 30.72 46.052-153.738 102.483zM961.564 912.453c-29.49 29.374-70.169 47.534-115.088 47.534-33.609 0-64.843-10.166-90.796-27.591l-24.737-16.484 30.72-46.080 25.296 16.882c16.737 11.252 37.345 17.96 59.519 17.96 29.647 0 56.494-11.99 75.956-31.386 19.378-19.458 31.361-46.301 31.361-75.942 0-22.165-6.7-42.766-18.186-59.887l-16.637-24.936 46.052-30.692 16.882 25.323c17.014 25.365 27.154 56.582 27.154 90.168 0 44.926-18.143 85.614-47.503 115.137zM87.095 737.847c-11.243 16.737-17.944 37.342-17.944 59.512 0 29.647 11.983 56.494 31.371 75.964 19.446 19.382 46.281 31.367 75.915 31.367 22.179 0 42.79-6.714 59.912-18.22l24.938-16.61 30.609 46.052-25.296 16.854c-25.36 17.036-56.58 27.19-90.173 27.19-44.909 0-85.578-18.148-115.076-47.51-29.336-29.508-47.473-70.189-47.473-115.107 0-33.593 10.144-64.817 27.537-90.775l16.51-24.733 46.052 30.692z" />
<glyph unicode="&#xe920;" glyph-name="group-28" d="M546.705 413.139c-7.658 51.957-28.271 270.714-40.070 270.714s-32.323-218.669-39.891-270.714c-16.459-12.271-27.017-31.666-27.069-53.529 0-37.039 30.019-67.058 67.050-67.058 0.007 0 0.014 0 0.022 0 37.018 0 67.027 30.009 67.027 67.027 0 0.008 0 0.016 0 0.024-0.052 21.87-10.61 41.265-26.893 53.41zM494.481 34.95c-211.122 0.646-382.019 171.941-382.019 383.152 0 0.095 0 0.189 0 0.284 0 0.065 0 0.16 0 0.254 0 211.215 170.895 382.516 381.956 383.174 211.178-0.671 382.060-171.967 382.060-383.174 0-0.095 0-0.189 0-0.284 0-0.065 0-0.16 0-0.254 0-211.203-170.885-382.494-381.934-383.152zM696.587 795.225l11.776 27.381 21.081-8.57 24.487 57.121-84.235 34.193-24.487-57.121 21.059-8.548-10.819-25.199c-37.318 15.628-80.556 26.3-125.792 29.87l-1.473 49.067h35.328v66.56h-137.038v-66.56h33.391v-48.974c-45.647-3.737-87.853-14.134-127.104-30.254l-7.685 25.513 21.081 8.548-24.487 57.121-84.435-34.215 24.487-57.121 21.081 8.57 11.398-26.468c-136.219-73.371-227.273-214.919-227.417-377.747 0.253-236.147 191.578-427.503 427.669-427.807 236.159 0.291 427.497 191.652 427.75 427.763-0.145 162.167-90.395 303.198-223.374 375.759z" />
<glyph unicode="&#xe921;" glyph-name="group-29" d="M798.371 554.31c-17.596 0-31.86 14.264-31.86 31.86 0.013 17.591 14.27 31.847 31.859 31.86 17.592-0.013 31.848-14.27 31.862-31.859 0-17.597-14.264-31.862-31.86-31.862zM511.604 150.737c-129.046 0-233.658 104.612-233.658 233.658s104.612 233.658 233.658 233.658c129.046 0 233.658-104.612 233.658-233.658s-104.612-233.658-233.658-233.658zM957.673 704h-169.891l-108.777 109.079c-11.512 11.603-27.431 18.817-45.036 18.921h-244.663c-17.633-0.1-33.561-7.315-45.075-18.917l-108.781-109.083h-169.891c-35.769-0.329-64.734-29-65.535-64.623l-0.001-509.887c0.729-35.888 29.644-64.787 65.47-65.488l892.18-0.001c36.085 0.626 65.231 29.478 66.325 65.388l0.002 509.891c-1.183 35.816-30.37 64.433-66.301 64.698zM511.604 575.558c-105.541-0.119-191.066-85.645-191.185-191.174 0.119-105.552 85.645-191.078 191.174-191.197 105.552 0.119 191.078 85.645 191.197 191.174-0.119 105.552-85.645 191.078-191.174 191.197zM209.455 766.65c0 11.636-4.655 18.618-16.454 18.618h-84.969c-11.636 0-26.577-6.982-26.577-18.618v-16.291h128z" />
<glyph unicode="&#xe922;" glyph-name="group-30" d="M558.545 192v372.364h-139.636v-23.273h46.545v-349.091h-46.545v-23.273h186.182v23.273zM504.716 747.636c-32.93 0-59.625-26.695-59.625-59.625 0-0.008 0-0.016 0-0.025 0-32.929 26.695-59.623 59.625-59.623 0.007 0 0.015 0 0.023 0 32.93 0 59.625 26.695 59.625 59.625 0 0.007 0 0.015 0 0.023 0 32.93-26.695 59.625-59.625 59.625-0.008 0-0.016 0-0.024 0zM512 960c-282.77 0-512-229.23-512-512s229.23-512 512-512c282.77 0 512 229.23 512 512s-229.23 512-512 512zM512 919.040c260.026-0.304 470.736-211.014 471.040-471.011-0.304-260.055-211.014-470.765-471.011-471.069-260.055 0.304-470.765 211.014-471.069 471.011 0.304 260.055 211.014 470.765 471.011 471.069z" />
<glyph unicode="&#xe923;" glyph-name="group-31" d="M444.127 850.616c0.015 35.898 29.112 64.996 65.009 65.011 35.911 0 65.024-29.103 65.039-65.009 0-35.92-29.118-65.039-65.037-65.039-35.908 0.015-65.011 29.127-65.011 65.037zM618.549 850.616c-0.075 60.39-49.018 109.324-109.405 109.384-60.387-0.075-109.315-49.003-109.39-109.377 0.060-60.4 48.994-109.343 109.377-109.418 60.409 0.060 109.358 49.009 109.418 109.405zM306.937 614.938c0.015 17.894 14.509 32.397 32.398 32.427h337.87c17.897-0.030 32.397-14.53 32.427-32.424v-272.151c-0.015-17.903-14.524-32.412-32.425-32.427h-27.387v232.789h-44.373v-528.857c-0.015-17.903-14.524-32.412-32.425-32.427h-6.566c-17.903 0.015-32.412 14.524-32.427 32.425v279.842h-51.436v-279.841c-0.015-17.903-14.524-32.412-32.425-32.427h-6.566c-17.903 0.015-32.412 14.524-32.427 32.425v528.858h-44.426v-232.789h-27.412c-17.891 0.030-32.385 14.533-32.4 32.425zM339.338 266.017h27.412v-251.694c0.045-42.397 34.403-76.755 76.796-76.8h6.568c0.004 0 0.008 0 0.013 0 23.225 0 44.037 10.334 58.087 26.655 14.219-16.321 35.031-26.655 58.256-26.655 0.004 0 0.009 0 0.013 0h6.563c42.397 0.045 76.755 34.403 76.8 76.796v251.698h27.412c42.397 0.045 76.755 34.403 76.8 76.796v272.126c-0.045 42.397-34.403 76.755-76.796 76.8h-337.924c-42.386-0.060-76.729-34.412-76.774-76.796v-272.152c0.060-42.377 34.397-76.714 76.768-76.774z" />
<glyph unicode="&#xe924;" glyph-name="group-32" d="M787.88-64h-660.509c-70.341 0.060-127.348 57.062-127.417 127.395v660.531c0.129 70.291 57.115 127.229 127.412 127.28h385.301v-34.593h-385.296c-51.18-0.069-92.658-41.514-92.778-92.676v-660.505c0.052-51.225 41.555-92.74 92.771-92.809h660.516c51.212 0.069 92.709 41.566 92.778 92.772v385.287h34.593v-385.28c-0.069-70.323-57.050-127.315-127.363-127.401zM512.182 540.46l-30.775-123.053 123.068 30.775 365.81 365.81c11.792 11.818 19.083 28.131 19.083 46.147s-7.292 34.328-19.084 46.148c-11.978 11.437-28.244 18.476-46.153 18.476s-34.175-7.039-46.18-18.502zM457.633 376.344c-4.774 0.002-9.097 1.935-12.228 5.061-3.129 3.126-5.065 7.447-5.065 12.22 0 1.493 0.19 2.943 0.546 4.325l38.9 155.556c0.801 3.162 2.389 5.881 4.545 8.030l369.189 369.219c17.98 18.065 42.865 29.244 70.36 29.244 0.088 0 0.176 0 0.264 0 0.064 0 0.156 0 0.249 0 27.492 0 52.372-11.18 70.344-29.24 18.044-18.092 29.198-43.054 29.198-70.622s-11.154-52.53-29.196-70.62l-369.186-369.186c-2.157-2.154-4.879-3.742-7.926-4.52l-155.811-38.998c-1.25-0.327-2.684-0.515-4.163-0.515-0.007 0-0.013 0-0.020 0zM931.358 750.609l-116.764 116.764 24.456 24.471 116.764-116.78z" />
<glyph unicode="&#xe925;" glyph-name="group-33" d="M954.193 517.784h-372.364v372.364c0 38.578-31.274 69.852-69.852 69.852-38.559-0.026-69.807-31.29-69.807-69.852v-372.364h-372.364c-38.456-0.128-69.581-31.333-69.581-69.807 0 0 0 0 0 0 0-38.562 31.248-69.826 69.804-69.852h372.366v-372.364c0-38.553 31.254-69.807 69.807-69.807 38.562 0 69.826 31.248 69.852 69.804v372.366h372.138c38.559 0.026 69.807 31.29 69.807 69.852 0 38.553-31.254 69.807-69.807 69.807z" />
<glyph unicode="&#xe926;" glyph-name="group-34" d="M436.713 260.864h14.662c39.16 0.040 70.896 31.775 70.935 70.931v223.631c-0.106 39.11-31.816 70.779-70.932 70.819h-171.291c-39.165-0.040-70.906-31.772-70.959-70.93v-223.633c0.119-39.113 31.834-70.779 70.955-70.819h14.666l-0.163-321.303h-34.56v288.349l-8.471 2.327c-44.661 12.992-76.786 53.449-77.009 101.443v223.653c0.013 58.303 47.247 105.569 105.535 105.635h171.294c58.263-0.066 105.476-47.279 105.542-105.536v-223.634c-0.221-48.035-32.371-88.501-76.307-101.283l-9.22-2.514v-288.349h-34.676zM671.93 959.441h169.425v-34.513h-134.819v-87.599h70.121v-34.583h-70.121v-87.668h134.819v-34.607h-134.819v-87.599h70.121v-34.607h-70.121v-87.552h134.819v-34.607h-134.819v-87.599h70.121v-34.583h-70.121v-87.575h134.819v-34.676h-134.819v-87.645h70.121v-34.583h-70.121v-87.599h134.819v-34.583l-169.425 0.233zM365.708 925.463c-49.729 0-90.042-40.313-90.042-90.042s40.313-90.042 90.042-90.042c49.729 0 90.042 40.313 90.042 90.042s-40.313 90.042-90.042 90.042zM490.287 835.421c0-68.803-55.776-124.579-124.579-124.579s-124.579 55.776-124.579 124.579c0 68.803 55.776 124.579 124.579 124.579s124.579-55.776 124.579-124.579z" />
<glyph unicode="&#xe927;" glyph-name="group-35" d="M519.27 803.994h-35.174v-360.243l7.441-17.186 187.887-176.828 23.723 25.754-183.637 179.029zM507.716-28.57c-260.723 0.32-471.992 211.596-472.303 472.29 0.31 260.75 211.582 472.022 472.273 472.332 260.762-0.301 472.047-211.574 472.367-472.272-0.32-260.763-211.604-472.040-472.307-472.351zM507.716 951.467c-280.271-0.33-507.387-227.446-507.716-507.685 0.32-280.309 227.439-507.434 507.684-507.764 280.319 0.32 507.452 227.446 507.782 507.701-0.34 280.311-227.469 507.428-507.72 507.748z" />
<glyph unicode="&#xe928;" glyph-name="group-36" horiz-adv-x="1000" d="M514.741-63.973c-0.003 0-0.007 0-0.011 0-10.321 0-19.695 4.055-26.616 10.659-7.419 7.059-12.042 17.027-12.042 28.074 0 10.346 4.055 19.745 10.662 26.694l421.613 443.806-424.981 449.41c-6.554 6.925-10.584 16.297-10.584 26.611 0 11.081 4.652 21.076 12.11 28.138 6.945 6.564 16.316 10.59 26.628 10.59 11.080 0 21.074-4.647 28.14-12.099l450.172-476.092c6.56-6.922 10.594-16.296 10.594-26.611s-4.034-19.689-10.611-26.629l-446.972-470.496c-7.056-7.432-17.009-12.055-28.041-12.055-0.021 0-0.043 0-0.064 0zM920.163 406.034h-881.417c-21.399 0-38.746 17.347-38.746 38.746 0 0.039 0 0.086 0 0.133 0 21.399 17.347 38.746 38.746 38.746 0 0 0 0 0 0h881.417c0 0 0 0 0 0 21.399 0 38.746-17.347 38.746-38.746 0-0.047 0-0.094 0-0.14 0-21.392-17.347-38.739-38.746-38.739z" />
<glyph unicode="&#xe929;" glyph-name="group-37" d="M859.579 35.937c-42.87-47.491-136.358-54.051-231.009-54.051-19.926 0-40.074 0.304-60.886 0.581-15.803 0.221-31.412 0.36-47.049 0.415h-12.842c-24.106 0-32.436-0.194-48.294-0.443-20.065-0.277-41.32-0.581-61.246-0.581-94.651 0-188.693 6.559-231.562 54.051-25.6 28.395-20.784 79.789-16.246 125.149l0.913 10.544c12.814 133.59 168.268 236.212 361.472 238.758 193.425-2.546 348.907-105.168 361.721-238.786l1.024-10.517c4.511-45.36 9.631-96.865-15.997-125.149zM923.565 176.446c-15.056 156.921-186.783 278.224-403.733 284.285v0.332h-7.666v-7.749l-0.277 7.749h-4.151v-0.221c-216.95-6.061-389.646-127.308-404.701-284.257l-2.131-10.406c-5.286-53.027-12.399-119.005 28.202-164.034 58.894-65.287 169.071-70.739 267.984-70.739 19.926 0 39.853 0.304 59.862 0.609h1.854c18.349 0.277 36.255 0.387 54.051 0.443s35.729-0.166 54.106-0.443h1.882c20.010-0.304 40.074-0.609 60.001-0.609 98.913 0 209.366 5.535 268.26 70.739 40.6 45.028 34.041 111.007 28.755 164.034zM511.114 909.409c99.848-0.11 180.762-81.015 180.888-180.849-0.142-99.846-81.050-180.735-180.878-180.845-99.868 0.11-180.789 81.031-180.899 180.878 0.11 99.868 81.031 180.788 180.878 180.899zM511.114 497.124c127.766 0.142 231.306 103.662 231.479 231.407-0.11 127.826-103.675 231.41-231.466 231.552-127.747-0.236-231.217-103.784-231.327-231.524 0.157-127.774 103.688-231.305 231.437-231.462zM733.322 218.818h-44.752v47.99c-1.101 12.283-11.346 21.838-23.822 21.838-0.1 0-0.199-0.001-0.299-0.002-0.061 0.001-0.151 0.002-0.241 0.002-12.476 0-22.72-9.554-23.815-21.745l-0.007-47.971h-48.128c-12.283-1.101-21.838-11.346-21.838-23.822 0-0.1 0.001-0.199 0.002-0.299-0.001-0.069-0.002-0.169-0.002-0.269 0-12.476 9.555-22.72 21.746-23.815l48.22-0.007v-45.056c1.101-12.283 11.346-21.838 23.822-21.838 0.1 0 0.199 0.001 0.299 0.002 0.061-0.001 0.151-0.002 0.241-0.002 12.476 0 22.72 9.554 23.815 21.745l0.007 45.037h44.752c12.283 1.101 21.838 11.346 21.838 23.822 0 0.1-0.001 0.199-0.002 0.299 0.001 0.069 0.002 0.169 0.002 0.269 0 12.476-9.555 22.72-21.746 23.815z" />
<glyph unicode="&#xe92a;" glyph-name="group-38" d="M959.523 41.784h-293.697v43.772h293.697c0.062-0.001 0.136-0.001 0.21-0.001 8.103 0 15.16 4.482 18.826 11.103 1.84 3.176 2.892 6.857 2.892 10.784 0 4.247-1.231 8.207-3.357 11.542l-446.829 726.085c-3.838 6.284-10.658 10.414-18.443 10.414-0.057 0-0.114 0-0.171-0.001h0.009c-0.053 0-0.116 0.001-0.179 0.001-7.785 0-14.606-4.131-18.39-10.32l-446.952-726.249c-2.097-3.263-3.344-7.247-3.344-11.521 0-3.907 1.041-7.571 2.861-10.729 3.662-6.626 10.715-11.109 18.816-11.109 0.077 0 0.155 0 0.232 0.001h293.685v-43.772h-293.61c-0.123-0.001-0.269-0.001-0.415-0.001-24.371 0-45.603 13.438-56.691 33.308-5.495 9.538-8.638 20.587-8.638 32.371 0 12.748 3.679 24.637 10.032 34.662l446.672 725.803c11.655 18.861 32.217 31.241 55.671 31.241 0.082 0 0.163 0 0.245 0h-0.013c0.067 0 0.146 0 0.224 0 23.451 0 44.011-12.38 55.501-30.961l447.059-726.365c6.186-9.751 9.858-21.626 9.858-34.359 0-11.792-3.15-22.849-8.653-32.375-11.091-19.887-32.323-33.325-56.693-33.325-0.146 0-0.291 0-0.437 0.001zM512.642 129.31c-24.162-0.030-43.742-19.609-43.772-43.769 0.039-24.158 19.615-43.728 43.769-43.757 24.159 0.030 43.735 19.599 43.774 43.751-0.030 24.166-19.609 43.746-43.769 43.775zM512.642-1.987c-48.319 0.049-87.477 39.207-87.526 87.521 0.049 48.328 39.204 87.489 87.52 87.548 48.327-0.059 87.482-39.22 87.532-87.539-0.049-48.324-39.207-87.481-87.521-87.531zM512.642 610.747c-0.091 0.001-0.198 0.001-0.306 0.001-24.050 0-43.546-19.496-43.546-43.546 0-0.928 0.029-1.85 0.086-2.764-0.006-70.6 16.707-259.363 21.099-276.147 3.072-11.108 11.646-27.665 22.667-27.665 10.414 0 19.092 14.353 22.667 27.769 4.391 16.748 21.105 205.512 21.105 276.237 0.048 0.768 0.076 1.666 0.076 2.57 0 24.050-19.496 43.546-43.546 43.546-0.106 0-0.212 0-0.318-0.001zM512.642 216.854c-35.684 0-57.275 32.23-64.859 59.826-11.705 83.672-19.855 183.239-22.587 284.157-0.096 4.361-0.106 5.11-0.106 5.861 0 48.408 39.166 87.668 87.537 87.821 48.401-0.153 87.567-39.413 87.567-87.821 0-0.751-0.009-1.499-0.028-2.246-2.81-104.534-10.96-204.1-24.248-302.034-6.001-13.334-27.592-45.564-63.276-45.564z" />
<glyph unicode="&#xe92b;" glyph-name="group-39" d="M1013.259 948.622l-1013.259-410.123 361.586-229.012 217.338-362.246 434.335 1001.381zM1150.976 936.175l-333.414-134.918-437.134-429.010zM1437.992 737.178l-577.832 17.226-290.293-669.241z" />
<glyph unicode="&#xe92c;" glyph-name="group-40" d="M511.975-64c-282.629 0.336-511.653 229.368-511.975 511.969 0.336 282.657 229.351 511.681 511.942 512.031 190.725-0.204 357.031-104.414 445.299-258.949 4.642-8.305 6.599-15.238 6.599-22.629 0-15.269-8.351-28.588-20.735-35.638-5.982-3.411-12.906-5.361-20.285-5.361-15.265 0-28.582 8.342-35.641 20.716-75.369 132.099-215.045 219.617-375.177 219.803-237.364-0.28-429.688-192.604-429.968-429.915 0.266-237.375 192.595-429.714 429.915-429.994 237.374 0.28 429.703 192.618 429.97 429.941 0 22.672 18.358 41.030 41.004 41.030 0.009 0 0.017 0 0.026 0 0.006 0 0.015 0 0.023 0 22.646 0 41.004-18.358 41.004-41.004-0.322-282.64-229.36-511.678-511.969-512zM917.61 633.517c-0.031 0-0.069 0-0.106 0-3.73 0-7.34 0.512-10.764 1.471l-159.279 42.563c-17.662 4.829-30.429 20.732-30.429 39.617 0 3.769 0.508 7.419 1.461 10.886 4.761 17.374 20.664 30.141 39.55 30.141 3.769 0 7.419-0.508 10.886-1.461l112.997-30.199 11.747 109.148c2.176 20.681 19.52 36.659 40.596 36.659 1.619 0 3.216-0.094 4.786-0.278 20.485-2.275 36.42-19.652 36.42-40.75 0-1.549-0.086-3.079-0.253-4.583l-16.828-156.592c-1.362-12.256-7.937-22.747-17.424-29.341-6.633-4.587-14.681-7.276-23.358-7.28z" />
<glyph unicode="&#xe92d;" glyph-name="group-41" d="M410.577 921.251c-23.65 0-42.822-19.172-42.822-42.822s19.172-42.822 42.822-42.822c23.639 0.026 42.795 19.183 42.822 42.819-0.026 23.642-19.183 42.798-42.819 42.824zM410.577 796.881c-44.949 0.092-81.362 36.506-81.455 81.446 0 0.016 0 0.024 0 0.032 0 45.023 36.446 81.535 81.444 81.64 44.954-0.106 81.359-36.511 81.465-81.444 0-0.024 0-0.040 0-0.057 0-45.019-36.449-81.525-81.446-81.617zM918.156 153.553c-3.427 6.738-10.309 11.273-18.251 11.273-3.323 0-6.461-0.794-9.234-2.203l-64.186-32.109-141.801 248.157c-10.75 18.548-30.489 30.835-53.101 30.883h-180.231c-11.257 0.026-20.374 9.151-20.387 20.409v163.097h244.666c11.259 0 20.387 9.128 20.387 20.387 0 11.264-9.125 20.397-20.386 20.41h-244.667v81.455c0 11.259-9.128 20.387-20.387 20.387s-20.387-9.128-20.387-20.387v-285.44c0.026-33.772 27.39-61.144 61.157-61.184h180.228c7.538-0.005 14.12-4.090 17.658-10.166l151.325-265.011c3.576-6.175 10.152-10.263 17.682-10.263 0.018 0 0.036 0 0.054 0 3.316 0.001 6.448 0.8 9.211 2.217l81.341 40.721c6.82 3.4 11.422 10.325 11.422 18.325 0 3.294-0.78 6.406-2.167 9.161zM410.577-59.462c-168.842 0.185-305.665 137.008-305.85 305.832 0.623 129.391 81.035 239.826 194.525 284.686 4.259 1.591 6.78 2.093 9.418 2.093 8.599 0 15.953-5.329 18.939-12.865 0.914-2.315 1.416-4.839 1.416-7.479 0-8.603-5.329-15.962-12.866-18.955-100.822-39.356-171.139-134.969-172.587-247.189 0.928-147.305 119.895-266.337 266.907-267.372 108.695 0.892 201.749 66.506 242.653 160.119 3.872 9.003 11.025 13.998 19.344 13.998 2.916 0 5.688-0.614 8.196-1.719 7.159-3.171 12.153-10.338 12.153-18.671 0-2.924-0.615-5.704-1.722-8.219-48.129-109.245-155.566-184.227-280.52-184.259z" />
<glyph unicode="&#xe92e;" glyph-name="group-42" d="M378.018 348.995c-72.736-49.518-171.191-44.614-244.219-73.2-75.625-29.599-95.124-71.432-101.462-93.712 108.904-148.255 282.578-243.41 478.476-243.41 0.152 0 0.304 0 0.457 0 0.1 0 0.248 0 0.396 0 196.61 0 370.836 95.843 478.504 243.355-5.652 24.318-25.992 64.879-99.817 93.767-49.174 19.251-109.87 23.358-166.481 39.084l-9.345 2.749c-26.013 7.553-48.731 18.257-69.297 31.939-1.847 7.843-3.88 17.662-4.792 27.805-1.601 17.908-2.916 35.348-4.112 52.799 11.719 21.158 24.045 47.155 34.89 73.91 9.345 22.762 17.504 45.773 24.491 69.289 3.177 3.678 5.487 2.752 7.998 2.515l6.715-0.629c7.955-0.744 14.95 5.702 15.77 16.168l7.146 91.826c0.002 0.085 0.003 0.186 0.003 0.287 0 7.712-5.785 14.073-13.253 14.98l-0.892 0.083c7.33 95.76-10.962 139.965-10.962 139.965-27.527 60.015-81.77 103.654-147.076 116.009-15.378 3.173-31.742 5.051-48.483 5.4l-0.909 0.005c-17.025-0.354-33.389-2.233-49.243-5.507-64.854-12.245-119.115-55.906-146.112-114.688s-18.844-45.457-11.482-141.227l-0.808-0.075c-7.535-0.882-13.327-7.23-13.327-14.929 0-0.121 0.001-0.242 0.004-0.362l7.135-91.808c0.819-10.456 7.815-16.901 15.77-16.168l6.661 0.625c2.565 0.242 4.876 1.167 6.795 2.591 8.249-28.619 16.412-51.63 25.68-74.068 10.921-27.074 23.246-53.070 36.953-78.206-3.18-13.478-4.506-30.919-6.058-48.305-0.941-10.659-2.971-20.48-6.001-29.85z" />
<glyph unicode="&#xe931;" glyph-name="group" d="M831.683 447.996c0-176.558-143.129-319.687-319.687-319.687-176.555 0.004-319.68 143.131-319.68 319.687 0 176.558 143.129 319.687 319.687 319.687 176.555-0.004 319.68-143.131 319.68-319.687zM511.996 818.342c-204.436-0.239-370.099-165.903-370.338-370.316 0.235-204.464 165.904-370.133 370.323-370.368 204.461 0.239 370.125 165.907 370.36 370.323-0.239 204.461-165.907 370.125-370.323 370.36zM511.996 69.238c-209.086 0.247-378.515 169.68-378.759 378.742 0.247 209.106 169.676 378.534 378.735 378.782 209.107-0.247 378.535-169.676 378.782-378.735-0.247-209.107-169.676-378.535-378.735-378.782zM512.004 888.878c-243.379-0.284-440.598-197.504-440.882-440.855 0.284-243.405 197.504-440.625 440.855-440.909 243.405 0.284 440.625 197.504 440.909 440.855-0.284 243.405-197.504 440.625-440.855 440.909zM512.004-1.306c-248.026 0.292-449.011 201.277-449.303 449.275 0.292 248.053 201.277 449.038 449.275 449.33 248.050-0.296 449.031-201.28 449.323-449.275-0.292-248.053-201.277-449.038-449.275-449.33zM512.004 951.579c-277.991-0.325-503.259-225.592-503.583-503.552 0.324-278.022 225.592-503.29 503.552-503.614 278.019 0.328 503.283 225.595 503.607 503.552-0.324 278.019-225.588 503.286-503.544 503.614zM512.004-64.007c-282.64 0.328-511.675 229.364-512.004 511.972 0.328 282.671 229.364 511.707 511.972 512.035 282.671-0.328 511.707-229.364 512.035-511.972-0.328-282.671-229.364-511.707-511.972-512.035z" />
<glyph unicode="&#xe932;" glyph-name="path-1" d="M517.752-77.402v0c-3.524 4.909-352.105 493.478-352.105 685.297 0 194.471 157.65 352.12 352.12 352.12s352.12-157.65 352.12-352.12c0-191.819-348.582-680.358-352.105-685.267zM525.944 763.482c-0.009 0-0.020 0-0.030 0-90.453 0-163.78-73.327-163.78-163.78s73.327-163.78 163.78-163.78c90.453 0 163.78 73.327 163.78 163.78-0.103 90.401-73.351 163.66-163.738 163.78z" />
<glyph unicode="&#xe934;" glyph-name="star" d="M512 93.231l-277.597-152.902c-4.818-2.729-10.581-4.337-16.72-4.337-7.955 0-15.279 2.7-21.106 7.234-8.962 7.017-14.718 17.929-14.718 30.185 0 2.29 0.201 4.533 0.586 6.712l52.981 323.633-224.628 229.329c-6.704 6.98-10.832 16.477-10.832 26.938 0 4.125 0.642 8.1 1.831 11.831 3.934 13.010 15.002 22.944 28.662 25.248l310.578 47.273 138.799 294.633c5.708 12.333 17.906 20.772 32.094 20.945 14.251-0.154 26.471-8.599 32.094-20.724l138.89-294.854 310.412-47.104c13.863-2.356 24.922-12.28 28.884-25.296 1.153-3.667 1.779-7.588 1.779-11.656 0-10.545-4.204-20.107-11.028-27.103l-224.388-229.461 53.015-323.863c0.349-1.943 0.548-4.179 0.548-6.462 0-12.261-5.753-23.178-14.708-30.199-5.855-4.532-13.197-7.228-21.168-7.231z" />
</font>
</defs>
</svg>
